<svg width="16" height="8" viewBox="0 0 16 8" fill="none" xmlns="http://www.w3.org/2000/svg">
<mask id="path-1-inside-1" fill="white">
<path fill-rule="evenodd" clip-rule="evenodd" d="M0 4.21688C0.895211 2.93853 2.08029 1.89017 3.45836 1.15752C4.83642 0.424877 6.36833 0.028742 7.92885 0.00150635C9.48936 -0.0257293 11.0342 0.316708 12.437 1.00082C13.8398 1.68493 15.0607 2.69129 16 3.93763L15.1288 4.59402C14.2931 3.48515 13.2069 2.58978 11.9588 1.98113C10.7107 1.37247 9.33629 1.0678 7.94789 1.09203C6.55949 1.11626 5.19653 1.46871 3.97046 2.12055C2.74439 2.77239 1.69002 3.70511 0.893543 4.84247L0 4.21688ZM11.5699 2.77844C12.6921 3.32573 13.6689 4.13082 14.4203 5.12789L14.2577 5.25042C13.5256 4.27901 12.574 3.49464 11.4806 2.96143C10.3872 2.42823 9.18321 2.16133 7.96692 2.18256C6.75064 2.20379 5.55665 2.51254 4.48257 3.08357C3.40849 3.6546 2.48482 4.4717 1.78708 5.46807L1.62029 5.35129C2.33646 4.32861 3.28453 3.48992 4.38698 2.90381C5.48943 2.31769 6.71496 2.00078 7.96337 1.97899C9.21178 1.9572 10.4476 2.23115 11.5699 2.77844ZM2.33512 5.85176L2.68063 6.09366C3.27963 5.23829 4.07259 4.53682 4.99468 4.04659C5.91676 3.55637 6.94179 3.29131 7.98596 3.27308C9.03013 3.25486 10.0638 3.48399 11.0024 3.94174C11.9411 4.39949 12.758 5.07287 13.3865 5.90681L13.7234 5.653C13.0548 4.76591 12.1858 4.04961 11.1873 3.56269C10.1889 3.07576 9.08932 2.83203 7.9786 2.85141C6.86788 2.8708 5.77752 3.15275 4.79666 3.67422C3.81581 4.1957 2.9723 4.94188 2.33512 5.85176ZM3.57417 6.71926L3.04996 6.35224C3.60815 5.55515 4.34708 4.90147 5.20635 4.44464C6.06561 3.98782 7.0208 3.74082 7.99383 3.72383C8.96686 3.70685 9.93009 3.92037 10.8048 4.34693C11.6795 4.7735 12.4408 5.401 13.0264 6.17812L12.5153 6.5632C11.9904 5.86672 11.3082 5.30434 10.5242 4.92205C9.74032 4.53975 8.87705 4.34839 8.005 4.36361C7.13294 4.37883 6.27688 4.6002 5.50678 5.00962C4.73669 5.41904 4.07444 6.00488 3.57417 6.71926ZM3.76479 6.85272L4.47963 7.35319C4.87984 6.78169 5.40964 6.31302 6.02572 5.98548C6.64179 5.65795 7.32665 5.48085 8.02429 5.46867C8.72193 5.4565 9.41255 5.60959 10.0397 5.91543C10.6668 6.22126 11.2127 6.67117 11.6326 7.22835L12.3295 6.70324C11.8267 6.03608 11.1731 5.49738 10.4222 5.13118C9.67132 4.76498 8.84439 4.58167 8.00906 4.59625C7.17372 4.61083 6.3537 4.82288 5.61603 5.21506C4.87836 5.60724 4.24399 6.16842 3.76479 6.85272Z"/>
</mask>
<path fill-rule="evenodd" clip-rule="evenodd" d="M0 4.21688C0.895211 2.93853 2.08029 1.89017 3.45836 1.15752C4.83642 0.424877 6.36833 0.028742 7.92885 0.00150635C9.48936 -0.0257293 11.0342 0.316708 12.437 1.00082C13.8398 1.68493 15.0607 2.69129 16 3.93763L15.1288 4.59402C14.2931 3.48515 13.2069 2.58978 11.9588 1.98113C10.7107 1.37247 9.33629 1.0678 7.94789 1.09203C6.55949 1.11626 5.19653 1.46871 3.97046 2.12055C2.74439 2.77239 1.69002 3.70511 0.893543 4.84247L0 4.21688ZM11.5699 2.77844C12.6921 3.32573 13.6689 4.13082 14.4203 5.12789L14.2577 5.25042C13.5256 4.27901 12.574 3.49464 11.4806 2.96143C10.3872 2.42823 9.18321 2.16133 7.96692 2.18256C6.75064 2.20379 5.55665 2.51254 4.48257 3.08357C3.40849 3.6546 2.48482 4.4717 1.78708 5.46807L1.62029 5.35129C2.33646 4.32861 3.28453 3.48992 4.38698 2.90381C5.48943 2.31769 6.71496 2.00078 7.96337 1.97899C9.21178 1.9572 10.4476 2.23115 11.5699 2.77844ZM2.33512 5.85176L2.68063 6.09366C3.27963 5.23829 4.07259 4.53682 4.99468 4.04659C5.91676 3.55637 6.94179 3.29131 7.98596 3.27308C9.03013 3.25486 10.0638 3.48399 11.0024 3.94174C11.9411 4.39949 12.758 5.07287 13.3865 5.90681L13.7234 5.653C13.0548 4.76591 12.1858 4.04961 11.1873 3.56269C10.1889 3.07576 9.08932 2.83203 7.9786 2.85141C6.86788 2.8708 5.77752 3.15275 4.79666 3.67422C3.81581 4.1957 2.9723 4.94188 2.33512 5.85176ZM3.57417 6.71926L3.04996 6.35224C3.60815 5.55515 4.34708 4.90147 5.20635 4.44464C6.06561 3.98782 7.0208 3.74082 7.99383 3.72383C8.96686 3.70685 9.93009 3.92037 10.8048 4.34693C11.6795 4.7735 12.4408 5.401 13.0264 6.17812L12.5153 6.5632C11.9904 5.86672 11.3082 5.30434 10.5242 4.92205C9.74032 4.53975 8.87705 4.34839 8.005 4.36361C7.13294 4.37883 6.27688 4.6002 5.50678 5.00962C4.73669 5.41904 4.07444 6.00488 3.57417 6.71926ZM3.76479 6.85272L4.47963 7.35319C4.87984 6.78169 5.40964 6.31302 6.02572 5.98548C6.64179 5.65795 7.32665 5.48085 8.02429 5.46867C8.72193 5.4565 9.41255 5.60959 10.0397 5.91543C10.6668 6.22126 11.2127 6.67117 11.6326 7.22835L12.3295 6.70324C11.8267 6.03608 11.1731 5.49738 10.4222 5.13118C9.67132 4.76498 8.84439 4.58167 8.00906 4.59625C7.17372 4.61083 6.3537 4.82288 5.61603 5.21506C4.87836 5.60724 4.24399 6.16842 3.76479 6.85272Z" fill="#5BACEC" fill-opacity="0.41"/>
<path d="M3.45836 1.15752L4.39722 2.92346L4.39722 2.92346L3.45836 1.15752ZM0 4.21688L-1.63824 3.06964L-2.78561 4.70805L-1.14706 5.85524L0 4.21688ZM7.92885 0.00150635L7.89395 -1.99819L7.92885 0.00150635ZM12.437 1.00082L11.5603 2.79845L11.5603 2.79845L12.437 1.00082ZM16 3.93763L17.2035 5.53496L18.8011 4.33129L17.5972 2.73391L16 3.93763ZM15.1288 4.59402L13.5316 5.79774L14.7352 7.39477L16.3324 6.19136L15.1288 4.59402ZM11.9588 1.98113L11.0821 3.77875L11.0821 3.77875L11.9588 1.98113ZM7.94789 1.09203L7.98279 3.09173L7.98279 3.09173L7.94789 1.09203ZM3.97046 2.12055L4.90932 3.88649L3.97046 2.12055ZM0.893543 4.84247L-0.253522 6.48084L1.38467 7.62778L2.53179 5.98971L0.893543 4.84247ZM14.4203 5.12789L15.6238 6.72523L17.2213 5.52155L16.0175 3.92417L14.4203 5.12789ZM11.5699 2.77844L10.6932 4.57607L10.6932 4.57607L11.5699 2.77844ZM14.2577 5.25042L12.6605 6.45413L13.864 8.05116L15.4612 6.84776L14.2577 5.25042ZM7.96692 2.18256L7.93202 0.182862L7.96692 2.18256ZM4.48257 3.08357L5.42143 4.84951L5.42143 4.84951L4.48257 3.08357ZM1.78708 5.46807L0.640008 7.10642L2.2782 8.25339L3.42533 6.61531L1.78708 5.46807ZM1.62029 5.35129L-0.0179527 4.20405L-1.16531 5.84246L0.473215 6.98965L1.62029 5.35129ZM7.96337 1.97899L7.92847 -0.0207034L7.92847 -0.0207034L7.96337 1.97899ZM2.68063 6.09366L1.53356 7.73202L3.17175 8.87897L4.31887 7.2409L2.68063 6.09366ZM2.33512 5.85176L0.696882 4.70452L-0.450476 6.34293L1.18805 7.49012L2.33512 5.85176ZM4.99468 4.04659L4.05581 2.28066L4.05581 2.28066L4.99468 4.04659ZM7.98596 3.27308L8.02086 5.27278L8.02086 5.27278L7.98596 3.27308ZM11.0024 3.94174L10.1258 5.73937L10.1258 5.73937L11.0024 3.94174ZM13.3865 5.90681L11.7893 7.11053L12.9929 8.70757L14.5901 7.50414L13.3865 5.90681ZM13.7234 5.653L14.9269 7.25034L16.5244 6.04666L15.3206 4.44929L13.7234 5.653ZM11.1873 3.56269L10.3107 5.36031L10.3107 5.36032L11.1873 3.56269ZM7.9786 2.85141L7.9437 0.851716L7.9437 0.851716L7.9786 2.85141ZM4.79666 3.67422L5.73552 5.44016L5.73552 5.44016L4.79666 3.67422ZM3.04996 6.35224L1.41171 5.205L0.264352 6.84342L1.90289 7.99061L3.04996 6.35224ZM3.57417 6.71926L2.42711 8.35762L4.0653 9.50456L5.21241 7.8665L3.57417 6.71926ZM5.20635 4.44464L6.14521 6.21058L6.14521 6.21058L5.20635 4.44464ZM10.8048 4.34693L11.6814 2.54931L11.6814 2.54931L10.8048 4.34693ZM13.0264 6.17812L14.23 7.77546L15.8275 6.57179L14.6236 4.9744L13.0264 6.17812ZM12.5153 6.5632L10.9181 7.76692L12.1217 9.36395L13.7189 8.16054L12.5153 6.5632ZM10.5242 4.92205L11.4009 3.12442L11.4009 3.12442L10.5242 4.92205ZM8.005 4.36361L7.9701 2.36391L8.005 4.36361ZM5.50678 5.00962L4.56792 3.24368L4.56792 3.24368L5.50678 5.00962ZM4.47963 7.35319L3.33256 8.99156L4.97075 10.1385L6.11787 8.50043L4.47963 7.35319ZM3.76479 6.85272L2.12655 5.70548L0.97919 7.34389L2.61773 8.49108L3.76479 6.85272ZM8.02429 5.46867L8.05919 7.46837L8.05919 7.46837L8.02429 5.46867ZM10.0397 5.91543L9.16302 7.71305L9.16302 7.71305L10.0397 5.91543ZM11.6326 7.22835L10.0354 8.43207L11.2389 10.0291L12.8361 8.82569L11.6326 7.22835ZM12.3295 6.70324L13.533 8.30057L15.1306 7.0969L13.9267 5.49952L12.3295 6.70324ZM10.4222 5.13118L11.2989 3.33355L11.2989 3.33355L10.4222 5.13118ZM8.00906 4.59625L8.04396 6.59595L8.04396 6.59595L8.00906 4.59625ZM5.61603 5.21506L4.67717 3.44912L4.67717 3.44912L5.61603 5.21506ZM2.5195 -0.608415C0.862769 0.272383 -0.561979 1.53274 -1.63824 3.06964L1.63824 5.36412C2.3524 4.34431 3.29782 3.50796 4.39722 2.92346L2.5195 -0.608415ZM7.89395 -1.99819C6.0179 -1.96545 4.17622 -1.48921 2.5195 -0.608415L4.39722 2.92346C5.49662 2.33897 6.71877 2.02293 7.96375 2.0012L7.89395 -1.99819ZM13.3136 -0.796807C11.6272 -1.61925 9.77 -2.03093 7.89395 -1.99819L7.96375 2.0012C9.20873 1.97947 10.4412 2.25267 11.5603 2.79845L13.3136 -0.796807ZM17.5972 2.73391C16.468 1.23551 15.0001 0.0256416 13.3136 -0.796807L11.5603 2.79845C12.6794 3.34422 13.6535 4.14707 14.4028 5.14134L17.5972 2.73391ZM16.3324 6.19136L17.2035 5.53496L14.7965 2.34029L13.9253 2.99668L16.3324 6.19136ZM11.0821 3.77875C12.0465 4.24908 12.8859 4.94093 13.5316 5.79774L16.726 3.3903C15.7004 2.02937 14.3672 0.930494 12.8354 0.183499L11.0821 3.77875ZM7.98279 3.09173C9.05565 3.073 10.1177 3.30843 11.0821 3.77875L12.8354 0.183499C11.3037 -0.563495 9.61692 -0.937403 7.91299 -0.907665L7.98279 3.09173ZM4.90932 3.88649C5.85673 3.3828 6.90992 3.11045 7.98279 3.09173L7.91299 -0.907665C6.20905 -0.877926 4.53634 -0.445384 3.0316 0.354607L4.90932 3.88649ZM2.53179 5.98971C3.14721 5.1109 3.96192 4.39017 4.90932 3.88649L3.0316 0.354607C1.52687 1.1546 0.232827 2.29933 -0.7447 3.69523L2.53179 5.98971ZM-1.14706 5.85524L-0.253522 6.48084L2.04061 3.2041L1.14706 2.57851L-1.14706 5.85524ZM16.0175 3.92417C15.0761 2.67504 13.8524 1.66644 12.4465 0.980816L10.6932 4.57607C11.5318 4.98502 12.2616 5.5866 12.8231 6.33161L16.0175 3.92417ZM15.4612 6.84776L15.6238 6.72523L13.2167 3.53055L13.0541 3.65308L15.4612 6.84776ZM10.6039 4.75906C11.4136 5.15393 12.1183 5.73479 12.6605 6.45413L15.8549 4.0467C14.9328 2.82323 13.7343 1.83535 12.3573 1.16381L10.6039 4.75906ZM8.00182 4.18225C8.90257 4.16653 9.79425 4.36419 10.6039 4.75906L12.3573 1.16381C10.9802 0.492266 9.46384 0.156127 7.93202 0.182862L8.00182 4.18225ZM5.42143 4.84951C6.21684 4.42663 7.10107 4.19797 8.00182 4.18225L7.93202 0.182862C6.4002 0.209597 4.89645 0.598447 3.54371 1.31763L5.42143 4.84951ZM3.42533 6.61531C3.94201 5.87749 4.62602 5.27239 5.42143 4.84951L3.54371 1.31763C2.19096 2.03682 1.02763 3.06592 0.14884 4.32083L3.42533 6.61531ZM0.473215 6.98965L0.640008 7.10642L2.93416 3.82971L2.76737 3.71293L0.473215 6.98965ZM3.44812 1.13787C2.067 1.87214 0.87927 2.92283 -0.0179527 4.20405L3.25853 6.49853C3.79365 5.73439 4.50205 5.10771 5.32584 4.66975L3.44812 1.13787ZM7.92847 -0.0207034C6.36452 0.00659242 4.82923 0.403598 3.44812 1.13787L5.32584 4.66975C6.14962 4.23178 7.06539 3.99497 7.99827 3.97869L7.92847 -0.0207034ZM12.4465 0.980816C11.0406 0.29519 9.49242 -0.0479989 7.92847 -0.0207034L7.99827 3.97869C8.93115 3.96241 9.85463 4.16712 10.6932 4.57607L12.4465 0.980816ZM3.8277 4.4553L3.4822 4.2134L1.18805 7.49012L1.53356 7.73202L3.8277 4.4553ZM4.05581 2.28066C2.85506 2.91903 1.82244 3.83251 1.04238 4.94642L4.31887 7.2409C4.73682 6.64408 5.29012 6.15461 5.93354 5.81253L4.05581 2.28066ZM7.95106 1.27339C6.59136 1.29712 5.25657 1.64228 4.05581 2.28066L5.93354 5.81253C6.57696 5.47046 7.29223 5.28549 8.02086 5.27278L7.95106 1.27339ZM11.8791 2.14411C10.6568 1.54803 9.31076 1.24966 7.95106 1.27339L8.02086 5.27278C8.74949 5.26006 9.47079 5.41995 10.1258 5.73937L11.8791 2.14411ZM14.9837 4.7031C14.1653 3.61709 13.1014 2.7402 11.8791 2.14411L10.1258 5.73937C10.7807 6.05878 11.3508 6.52865 11.7893 7.11053L14.9837 4.7031ZM12.5198 4.05567L12.183 4.30948L14.5901 7.50414L14.9269 7.25034L12.5198 4.05567ZM10.3107 5.36032C11.0255 5.70891 11.6476 6.22169 12.1262 6.85672L15.3206 4.44929C14.4621 3.31013 13.3461 2.39032 12.064 1.76506L10.3107 5.36032ZM8.0135 4.85111C8.80869 4.83723 9.59586 5.01172 10.3107 5.36031L12.064 1.76506C10.7819 1.1398 9.36995 0.826824 7.9437 0.851716L8.0135 4.85111ZM5.73552 5.44016C6.43771 5.06684 7.21832 4.86499 8.0135 4.85111L7.9437 0.851716C6.51745 0.876609 5.11732 1.23866 3.8578 1.90829L5.73552 5.44016ZM3.97337 6.999C4.42949 6.34766 5.03333 5.81348 5.73552 5.44016L3.8578 1.90829C2.59828 2.57791 1.51511 3.5361 0.696882 4.70452L3.97337 6.999ZM1.90289 7.99061L2.42711 8.35762L4.72123 5.08089L4.19702 4.71387L1.90289 7.99061ZM4.26748 2.67871C3.12956 3.28368 2.15096 4.14937 1.41171 5.205L4.6882 7.49948C5.06534 6.96093 5.56461 6.51926 6.14521 6.21058L4.26748 2.67871ZM7.95893 1.72414C6.67037 1.74663 5.40541 2.07373 4.26748 2.67871L6.14521 6.21058C6.7258 5.90191 7.37124 5.735 8.02873 5.72353L7.95893 1.72414ZM11.6814 2.54931C10.5231 1.98441 9.24749 1.70165 7.95893 1.72414L8.02873 5.72353C8.68622 5.71205 9.33709 5.85633 9.92811 6.14456L11.6814 2.54931ZM14.6236 4.9744C13.848 3.94522 12.8398 3.11421 11.6814 2.54931L9.92811 6.14456C10.5191 6.43279 11.0335 6.85677 11.4292 7.38184L14.6236 4.9744ZM13.7189 8.16054L14.23 7.77546L11.8229 4.58078L11.3118 4.96586L13.7189 8.16054ZM9.64758 6.71967C10.1478 6.96364 10.5832 7.3225 10.9181 7.76692L14.1125 5.35949C13.3977 4.41094 12.4685 3.64505 11.4009 3.12442L9.64758 6.71967ZM8.0399 6.3633C8.59641 6.35359 9.14732 6.47571 9.64758 6.71967L11.4009 3.12442C10.3333 2.60379 9.15768 2.34319 7.9701 2.36391L8.0399 6.3633ZM6.44564 6.77556C6.93707 6.51429 7.48338 6.37302 8.0399 6.3633L7.9701 2.36391C6.78251 2.38464 5.61668 2.68611 4.56792 3.24368L6.44564 6.77556ZM5.21241 7.8665C5.53163 7.41067 5.95421 7.03682 6.44564 6.77556L4.56792 3.24368C3.51916 3.80125 2.61725 4.5991 1.93593 5.57202L5.21241 7.8665ZM5.62669 5.71483L4.91186 5.21435L2.61773 8.49108L3.33256 8.99156L5.62669 5.71483ZM5.08685 4.21954C4.19211 4.69523 3.42265 5.37591 2.84138 6.20595L6.11787 8.50043C6.33703 8.18748 6.62717 7.9308 6.96458 7.75142L5.08685 4.21954ZM7.98939 3.46898C6.97621 3.48666 5.98159 3.74386 5.08685 4.21954L6.96458 7.75142C7.30199 7.57204 7.67708 7.47504 8.05919 7.46837L7.98939 3.46898ZM10.9163 4.1178C10.0055 3.67362 9.00256 3.4513 7.98939 3.46898L8.05919 7.46837C8.4413 7.4617 8.81955 7.54555 9.16302 7.71305L10.9163 4.1178ZM13.2298 6.02463C12.6199 5.21539 11.8271 4.56197 10.9163 4.1178L9.16302 7.71305C9.50649 7.88055 9.80541 8.12695 10.0354 8.43207L13.2298 6.02463ZM11.126 5.1059L10.429 5.63101L12.8361 8.82569L13.533 8.30057L11.126 5.1059ZM9.54556 6.92881C10.0128 7.15667 10.4195 7.49186 10.7323 7.90695L13.9267 5.49952C13.2339 4.5803 12.3335 3.83809 11.2989 3.33355L9.54556 6.92881ZM8.04396 6.59595C8.56376 6.58688 9.07832 6.70094 9.54557 6.92881L11.2989 3.33355C10.2643 2.82902 9.12503 2.57647 7.97416 2.59656L8.04396 6.59595ZM6.55489 6.981C7.0139 6.73697 7.52416 6.60502 8.04396 6.59595L7.97416 2.59656C6.82329 2.61664 5.6935 2.90879 4.67717 3.44912L6.55489 6.981ZM5.40304 7.99996C5.70118 7.5742 6.09589 7.22503 6.55489 6.981L4.67717 3.44912C3.66084 3.98946 2.7868 4.76264 2.12655 5.70548L5.40304 7.99996Z" fill="#5BACEC" mask="url(#path-1-inside-1)"/>
</svg>
