<svg width="271" height="207" viewBox="0 0 271 207" fill="none" xmlns="http://www.w3.org/2000/svg">
<path d="M61 171.969V149.656H71.1562C75.7188 149.656 78 151.651 78 155.641C78 158.339 76.224 160.573 72.6719 162.344L79.75 172H74.5312L67.7344 162.266V160.375C71.6927 159.698 73.6719 158.161 73.6719 155.766C73.6719 154.12 72.7448 153.297 70.8906 153.297H65.2188V171.969H61ZM84.0156 172H79.7656L89.25 149.656H93.7031L103.391 172H98.9375L96.3906 165.906H88.9688L90.3906 162.312H94.8906L91.375 153.922L84.0156 172ZM110.266 149.656V172H106.125V149.656H110.266ZM114.969 172V149.656H119.109L130.906 165.938V149.656H134.891V172H130.75L118.953 155.375V172H114.969ZM139.594 172V149.656H150.062C154.312 149.656 156.438 151.391 156.438 154.859C156.438 157.401 155.052 159.219 152.281 160.312C155.24 160.865 156.719 162.557 156.719 165.391C156.719 169.797 154.391 172 149.734 172H139.594ZM149.562 168.406C151.396 168.406 152.312 167.469 152.312 165.594C152.312 163.271 150.943 162.109 148.203 162.109H146.953V159.438C150.391 158.865 152.109 157.427 152.109 155.125C152.109 153.875 151.339 153.25 149.797 153.25H143.734V168.406H149.562ZM163.766 160.766C163.766 165.964 166.073 168.562 170.688 168.562C175.188 168.562 177.438 165.964 177.438 160.766C177.438 155.651 175.188 153.094 170.688 153.094C166.073 153.094 163.766 155.651 163.766 160.766ZM159.469 160.859C159.469 153.286 163.208 149.5 170.688 149.5C178.052 149.5 181.734 153.286 181.734 160.859C181.734 168.391 178.052 172.156 170.688 172.156C163.542 172.156 159.802 168.391 159.469 160.859ZM183.859 149.656H188.062L190.453 165.703L196.266 149.656H200.25L205.688 165.078L208.219 149.656H212.297L208.094 172H204.156L198.016 154.469L191.422 172H187.531L183.859 149.656Z" fill="#5BACEC"/>
<path d="M61 171.969H60.5V172.469H61V171.969ZM61 149.656V149.156H60.5V149.656H61ZM72.6719 162.344L72.4488 161.896L71.9179 162.161L72.2686 162.639L72.6719 162.344ZM79.75 172V172.5H80.7364L80.1533 171.704L79.75 172ZM74.5312 172L74.1213 172.286L74.2705 172.5H74.5312V172ZM67.7344 162.266H67.2344V162.423L67.3244 162.552L67.7344 162.266ZM67.7344 160.375L67.6501 159.882L67.2344 159.953V160.375H67.7344ZM65.2188 153.297V152.797H64.7188V153.297H65.2188ZM65.2188 171.969V172.469H65.7188V171.969H65.2188ZM61.5 171.969V149.656H60.5V171.969H61.5ZM61 150.156H71.1562V149.156H61V150.156ZM71.1562 150.156C73.3757 150.156 74.9469 150.643 75.9599 151.529C76.9602 152.403 77.5 153.742 77.5 155.641H78.5C78.5 153.55 77.8992 151.896 76.6182 150.776C75.35 149.667 73.4993 149.156 71.1562 149.156V150.156ZM77.5 155.641C77.5 158.066 75.9212 160.165 72.4488 161.896L72.895 162.791C76.5267 160.981 78.5 158.611 78.5 155.641H77.5ZM72.2686 162.639L79.3467 172.296L80.1533 171.704L73.0751 162.048L72.2686 162.639ZM79.75 171.5H74.5312V172.5H79.75V171.5ZM74.9412 171.714L68.1443 161.979L67.3244 162.552L74.1213 172.286L74.9412 171.714ZM68.2344 162.266V160.375H67.2344V162.266H68.2344ZM67.8187 160.868C69.8351 160.523 71.4118 159.95 72.4941 159.11C73.5992 158.252 74.1719 157.126 74.1719 155.766H73.1719C73.1719 156.801 72.755 157.641 71.8809 158.32C70.984 159.016 69.592 159.55 67.6501 159.882L67.8187 160.868ZM74.1719 155.766C74.1719 154.849 73.911 154.075 73.3085 153.54C72.7173 153.015 71.8811 152.797 70.8906 152.797V153.797C71.7543 153.797 72.3087 153.99 72.6446 154.288C72.9692 154.576 73.1719 155.036 73.1719 155.766H74.1719ZM70.8906 152.797H65.2188V153.797H70.8906V152.797ZM64.7188 153.297V171.969H65.7188V153.297H64.7188ZM65.2188 171.469H61V172.469H65.2188V171.469ZM84.0156 172V172.5H84.3519L84.4787 172.189L84.0156 172ZM79.7656 172L79.3054 171.805L79.0102 172.5H79.7656V172ZM89.25 149.656V149.156H88.9191L88.7897 149.461L89.25 149.656ZM93.7031 149.656L94.1619 149.457L94.0313 149.156H93.7031V149.656ZM103.391 172V172.5H104.152L103.849 171.801L103.391 172ZM98.9375 172L98.4762 172.193L98.6046 172.5H98.9375V172ZM96.3906 165.906L96.852 165.713L96.7236 165.406H96.3906V165.906ZM88.9688 165.906L88.5038 165.722L88.2332 166.406H88.9688V165.906ZM90.3906 162.312V161.812H90.0507L89.9257 162.129L90.3906 162.312ZM94.8906 162.312V162.812H95.6422L95.3518 162.119L94.8906 162.312ZM91.375 153.922L91.8362 153.729L91.3683 152.612L90.9119 153.733L91.375 153.922ZM84.0156 171.5H79.7656V172.5H84.0156V171.5ZM80.2259 172.195L89.7103 149.852L88.7897 149.461L79.3054 171.805L80.2259 172.195ZM89.25 150.156H93.7031V149.156H89.25V150.156ZM93.2444 149.855L102.932 172.199L103.849 171.801L94.1619 149.457L93.2444 149.855ZM103.391 171.5H98.9375V172.5H103.391V171.5ZM99.3988 171.807L96.852 165.713L95.9293 166.099L98.4762 172.193L99.3988 171.807ZM96.3906 165.406H88.9688V166.406H96.3906V165.406ZM89.4337 166.09L90.8556 162.496L89.9257 162.129L88.5038 165.722L89.4337 166.09ZM90.3906 162.812H94.8906V161.812H90.3906V162.812ZM95.3518 162.119L91.8362 153.729L90.9138 154.115L94.4295 162.506L95.3518 162.119ZM90.9119 153.733L83.5525 171.811L84.4787 172.189L91.8381 154.11L90.9119 153.733ZM110.266 149.656H110.766V149.156H110.266V149.656ZM110.266 172V172.5H110.766V172H110.266ZM106.125 172H105.625V172.5H106.125V172ZM106.125 149.656V149.156H105.625V149.656H106.125ZM109.766 149.656V172H110.766V149.656H109.766ZM110.266 171.5H106.125V172.5H110.266V171.5ZM106.625 172V149.656H105.625V172H106.625ZM106.125 150.156H110.266V149.156H106.125V150.156ZM114.969 172H114.469V172.5H114.969V172ZM114.969 149.656V149.156H114.469V149.656H114.969ZM119.109 149.656L119.514 149.363L119.365 149.156H119.109V149.656ZM130.906 165.938L130.501 166.231L131.406 167.48V165.938H130.906ZM130.906 149.656V149.156H130.406V149.656H130.906ZM134.891 149.656H135.391V149.156H134.891V149.656ZM134.891 172V172.5H135.391V172H134.891ZM130.75 172L130.342 172.289L130.492 172.5H130.75V172ZM118.953 155.375L119.361 155.086L118.453 153.806V155.375H118.953ZM118.953 172V172.5H119.453V172H118.953ZM115.469 172V149.656H114.469V172H115.469ZM114.969 150.156H119.109V149.156H114.969V150.156ZM118.704 149.95L130.501 166.231L131.311 165.644L119.514 149.363L118.704 149.95ZM131.406 165.938V149.656H130.406V165.938H131.406ZM130.906 150.156H134.891V149.156H130.906V150.156ZM134.391 149.656V172H135.391V149.656H134.391ZM134.891 171.5H130.75V172.5H134.891V171.5ZM131.158 171.711L119.361 155.086L118.545 155.664L130.342 172.289L131.158 171.711ZM118.453 155.375V172H119.453V155.375H118.453ZM118.953 171.5H114.969V172.5H118.953V171.5ZM139.594 172H139.094V172.5H139.594V172ZM139.594 149.656V149.156H139.094V149.656H139.594ZM152.281 160.312L152.098 159.847L150.482 160.485L152.19 160.804L152.281 160.312ZM146.953 162.109H146.453V162.609H146.953V162.109ZM146.953 159.438L146.871 158.944L146.453 159.014V159.438H146.953ZM143.734 153.25V152.75H143.234V153.25H143.734ZM143.734 168.406H143.234V168.906H143.734V168.406ZM140.094 172V149.656H139.094V172H140.094ZM139.594 150.156H150.062V149.156H139.594V150.156ZM150.062 150.156C152.132 150.156 153.592 150.581 154.528 151.344C155.444 152.092 155.938 153.232 155.938 154.859H156.938C156.938 153.018 156.369 151.556 155.16 150.57C153.971 149.599 152.243 149.156 150.062 149.156V150.156ZM155.938 154.859C155.938 156.034 155.62 157.014 155.001 157.826C154.378 158.643 153.423 159.324 152.098 159.847L152.465 160.778C153.91 160.207 155.034 159.432 155.796 158.432C156.563 157.426 156.938 156.227 156.938 154.859H155.938ZM152.19 160.804C153.596 161.066 154.589 161.588 155.233 162.325C155.874 163.059 156.219 164.062 156.219 165.391H157.219C157.219 163.885 156.824 162.626 155.986 161.667C155.151 160.711 153.925 160.111 152.373 159.821L152.19 160.804ZM156.219 165.391C156.219 167.509 155.66 169.009 154.629 169.984C153.592 170.965 151.992 171.5 149.734 171.5V172.5C152.133 172.5 154.025 171.933 155.316 170.711C156.613 169.484 157.219 167.678 157.219 165.391H156.219ZM149.734 171.5H139.594V172.5H149.734V171.5ZM149.562 168.906C150.559 168.906 151.398 168.651 151.983 168.053C152.565 167.457 152.812 166.606 152.812 165.594H151.812C151.812 166.457 151.601 167.012 151.267 167.354C150.936 167.693 150.399 167.906 149.562 167.906V168.906ZM152.812 165.594C152.812 164.332 152.436 163.301 151.609 162.599C150.796 161.91 149.632 161.609 148.203 161.609V162.609C149.514 162.609 150.404 162.889 150.962 163.362C151.504 163.821 151.812 164.533 151.812 165.594H152.812ZM148.203 161.609H146.953V162.609H148.203V161.609ZM147.453 162.109V159.438H146.453V162.109H147.453ZM147.035 159.931C148.797 159.637 150.185 159.112 151.141 158.313C152.118 157.497 152.609 156.419 152.609 155.125H151.609C151.609 156.133 151.242 156.925 150.5 157.546C149.736 158.184 148.546 158.665 146.871 158.944L147.035 159.931ZM152.609 155.125C152.609 154.392 152.378 153.762 151.846 153.33C151.334 152.915 150.622 152.75 149.797 152.75V153.75C150.513 153.75 150.958 153.897 151.216 154.107C151.455 154.301 151.609 154.608 151.609 155.125H152.609ZM149.797 152.75H143.734V153.75H149.797V152.75ZM143.234 153.25V168.406H144.234V153.25H143.234ZM143.734 168.906H149.562V167.906H143.734V168.906ZM159.469 160.859H158.969V160.87L158.969 160.881L159.469 160.859ZM163.266 160.766C163.266 163.428 163.855 165.518 165.122 166.945C166.399 168.384 168.287 169.062 170.688 169.062V168.062C168.474 168.062 166.9 167.442 165.87 166.281C164.83 165.109 164.266 163.301 164.266 160.766H163.266ZM170.688 169.062C173.035 169.062 174.881 168.381 176.128 166.941C177.363 165.514 177.938 163.425 177.938 160.766H176.938C176.938 163.304 176.387 165.114 175.372 166.286C174.369 167.444 172.84 168.062 170.688 168.062V169.062ZM177.938 160.766C177.938 158.146 177.363 156.088 176.125 154.681C174.877 153.263 173.032 152.594 170.688 152.594V153.594C172.843 153.594 174.373 154.203 175.375 155.342C176.387 156.493 176.938 158.271 176.938 160.766H177.938ZM170.688 152.594C168.289 152.594 166.403 153.261 165.125 154.677C163.856 156.083 163.266 158.143 163.266 160.766H164.266C164.266 158.273 164.829 156.498 165.867 155.347C166.897 154.205 168.471 153.594 170.688 153.594V152.594ZM159.969 160.859C159.969 157.148 160.885 154.457 162.629 152.691C164.372 150.926 167.027 150 170.688 150V149C166.869 149 163.914 149.967 161.918 151.988C159.922 154.009 158.969 156.997 158.969 160.859H159.969ZM170.688 150C174.289 150 176.899 150.925 178.614 152.688C180.332 154.454 181.234 157.147 181.234 160.859H182.234C182.234 156.999 181.296 154.012 179.331 151.991C177.364 149.968 174.45 149 170.688 149V150ZM181.234 160.859C181.234 164.551 180.332 167.227 178.615 168.982C176.9 170.736 174.29 171.656 170.688 171.656V172.656C174.45 172.656 177.363 171.694 179.33 169.682C181.296 167.672 182.234 164.699 182.234 160.859H181.234ZM170.688 171.656C167.2 171.656 164.625 170.739 162.878 168.98C161.127 167.216 160.132 164.531 159.968 160.837L158.969 160.881C159.139 164.719 160.18 167.682 162.169 169.684C164.161 171.691 167.029 172.656 170.688 172.656V171.656ZM183.859 149.656V149.156H183.271L183.366 149.737L183.859 149.656ZM188.062 149.656L188.557 149.583L188.494 149.156H188.062V149.656ZM190.453 165.703L189.959 165.777L190.923 165.873L190.453 165.703ZM196.266 149.656V149.156H195.915L195.796 149.486L196.266 149.656ZM200.25 149.656L200.722 149.49L200.604 149.156H200.25V149.656ZM205.688 165.078L205.216 165.244L206.181 165.159L205.688 165.078ZM208.219 149.656V149.156H207.794L207.725 149.575L208.219 149.656ZM212.297 149.656L212.788 149.749L212.9 149.156H212.297V149.656ZM208.094 172V172.5H208.508L208.585 172.092L208.094 172ZM204.156 172L203.684 172.165L203.802 172.5H204.156V172ZM198.016 154.469L198.488 154.303L198.032 153.004L197.548 154.293L198.016 154.469ZM191.422 172V172.5H191.768L191.89 172.176L191.422 172ZM187.531 172L187.038 172.081L187.107 172.5H187.531V172ZM183.859 150.156H188.062V149.156H183.859V150.156ZM187.568 149.73L189.959 165.777L190.948 165.629L188.557 149.583L187.568 149.73ZM190.923 165.873L196.736 149.827L195.796 149.486L189.983 165.533L190.923 165.873ZM196.266 150.156H200.25V149.156H196.266V150.156ZM199.778 149.823L205.216 165.244L206.159 164.912L200.722 149.49L199.778 149.823ZM206.181 165.159L208.712 149.737L207.725 149.575L205.194 164.997L206.181 165.159ZM208.219 150.156H212.297V149.156H208.219V150.156ZM211.805 149.564L207.602 171.908L208.585 172.092L212.788 149.749L211.805 149.564ZM208.094 171.5H204.156V172.5H208.094V171.5ZM204.628 171.835L198.488 154.303L197.544 154.634L203.684 172.165L204.628 171.835ZM197.548 154.293L190.954 171.824L191.89 172.176L198.484 154.645L197.548 154.293ZM191.422 171.5H187.531V172.5H191.422V171.5ZM188.025 171.919L184.353 149.575L183.366 149.737L187.038 172.081L188.025 171.919Z" fill="#5BACEC"/>
<path d="M2.17578 201V184.242H5.28125L14.1289 196.453V184.242H17.1172V201H14.0117L5.16406 188.531V201H2.17578ZM31.4258 188.695V201H29L28.625 199.43C27.2109 200.477 25.7109 201 24.125 201C21.6094 201 20.3516 199.512 20.3516 196.535V188.695H23.457V196.453C23.457 197.812 24.0508 198.492 25.2383 198.492C26.2461 198.492 27.2734 198.09 28.3203 197.285V188.695H31.4258ZM34.3672 201V188.695H36.7695L37.1562 190.266C38.2344 189.219 39.375 188.695 40.5781 188.695V191.203C39.4219 191.203 38.3867 191.684 37.4727 192.645V201H34.3672ZM42.3359 200.414V197.836C43.7031 198.383 45.2812 198.656 47.0703 198.656C48.4062 198.656 49.0742 198.227 49.0742 197.367C49.0742 196.547 48.625 196.137 47.7266 196.137H45.5C43 196.137 41.75 194.906 41.75 192.445C41.75 189.867 43.5742 188.578 47.2227 188.578C48.7695 188.578 50.2266 188.812 51.5938 189.281V191.859C50.2266 191.312 48.7422 191.039 47.1406 191.039C45.4609 191.039 44.6211 191.469 44.6211 192.328C44.6211 193.148 45.1094 193.559 46.0859 193.559H48.0781C50.8125 193.559 52.1797 194.789 52.1797 197.25C52.1797 199.828 50.4375 201.117 46.9531 201.117C45.2422 201.117 43.7031 200.883 42.3359 200.414ZM59.5508 188.695C63.2852 188.695 65.1523 190.602 65.1523 194.414C65.1523 194.922 65.1172 195.43 65.0469 195.938H56.8789C56.8789 197.672 58.1523 198.539 60.6992 198.539C61.9414 198.539 63.1836 198.422 64.4258 198.188V200.648C63.3398 200.883 62.0195 201 60.4648 201C56.0039 201 53.7734 198.902 53.7734 194.707C53.7734 190.699 55.6992 188.695 59.5508 188.695ZM56.8789 193.781H62.1289V193.688C62.1289 191.984 61.2695 191.133 59.5508 191.133C57.9102 191.133 57.0195 192.016 56.8789 193.781ZM67.4844 201V188.695H69.8867L70.2734 190.266C71.3516 189.219 72.4922 188.695 73.6953 188.695V191.203C72.5391 191.203 71.5039 191.684 70.5898 192.645V201H67.4844ZM73.9883 188.695H77.2812L80.3867 197.555L83.4219 188.695H86.6562L81.5469 201.363C80.6406 203.598 79.1914 205.188 77.1992 206.133L75.6992 204.012C77.0742 203.41 78.0742 202.43 78.6992 201.07L73.9883 188.695ZM91.8242 198.832L90.0664 203.93H86.9609L88.7188 198.832H91.8242ZM99.1602 201V184.242H106.66C110.082 184.242 111.793 185.816 111.793 188.965C111.793 192.379 109.453 194.445 104.773 195.164L104.328 192.398C107.141 191.891 108.547 190.777 108.547 189.059C108.547 187.668 107.852 186.973 106.461 186.973H102.266V201H99.1602ZM113.562 201V188.695H115.965L116.352 190.266C117.43 189.219 118.57 188.695 119.773 188.695V191.203C118.617 191.203 117.582 191.684 116.668 192.645V201H113.562ZM126.723 188.695C130.457 188.695 132.324 190.602 132.324 194.414C132.324 194.922 132.289 195.43 132.219 195.938H124.051C124.051 197.672 125.324 198.539 127.871 198.539C129.113 198.539 130.355 198.422 131.598 198.188V200.648C130.512 200.883 129.191 201 127.637 201C123.176 201 120.945 198.902 120.945 194.707C120.945 190.699 122.871 188.695 126.723 188.695ZM124.051 193.781H129.301V193.688C129.301 191.984 128.441 191.133 126.723 191.133C125.082 191.133 124.191 192.016 124.051 193.781ZM137.762 197.789C138.535 198.211 139.367 198.422 140.258 198.422C142.109 198.422 143.035 197.121 143.035 194.52C143.035 192.309 142.012 191.203 139.965 191.203C139.082 191.203 138.348 191.258 137.762 191.367V197.789ZM134.656 189.199C136.289 188.863 138.016 188.695 139.836 188.695C144.016 188.695 146.105 190.645 146.105 194.543C146.105 198.848 144.16 201 140.27 201C139.441 201 138.605 200.805 137.762 200.414V205.453H134.656V189.199ZM147.875 197.168C147.875 194.723 149.656 193.5 153.219 193.5C154.055 193.5 154.891 193.578 155.727 193.734V192.809C155.727 191.707 154.934 191.156 153.348 191.156C152.004 191.156 150.512 191.352 148.871 191.742V189.281C150.512 188.891 152.004 188.695 153.348 188.695C157.004 188.695 158.832 190.047 158.832 192.75V201H157.027L155.926 199.898C154.855 200.633 153.676 201 152.387 201C149.379 201 147.875 199.723 147.875 197.168ZM155.727 195.844C154.945 195.688 154.109 195.609 153.219 195.609C151.727 195.609 150.98 196.117 150.98 197.133C150.98 198.227 151.605 198.773 152.855 198.773C153.887 198.773 154.844 198.453 155.727 197.812V195.844ZM161.598 186.703H163.895L164.363 188.695H167.457V191.156H164.703V196.816C164.703 197.965 165.199 198.539 166.191 198.539H167.457V201H164.691C162.629 201 161.598 199.895 161.598 197.684V186.703ZM172.098 194.801C172.098 197.371 173.094 198.656 175.086 198.656C177.078 198.656 178.074 197.371 178.074 194.801C178.074 192.293 177.078 191.039 175.086 191.039C173.094 191.039 172.098 192.293 172.098 194.801ZM168.992 194.848C168.992 190.723 171.023 188.66 175.086 188.66C179.148 188.66 181.18 190.723 181.18 194.848C181.18 198.965 179.148 201.023 175.086 201.023C171.039 201.023 169.008 198.965 168.992 194.848ZM183.523 201V188.695H185.926L186.312 190.266C187.391 189.219 188.531 188.695 189.734 188.695V191.203C188.578 191.203 187.543 191.684 186.629 192.645V201H183.523ZM190.027 188.695H193.32L196.426 197.555L199.461 188.695H202.695L197.586 201.363C196.68 203.598 195.23 205.188 193.238 206.133L191.738 204.012C193.113 203.41 194.113 202.43 194.738 201.07L190.027 188.695ZM209.152 188.871C209.152 185.785 211.145 184.242 215.129 184.242C216.574 184.242 217.98 184.438 219.348 184.828V187.289C217.98 186.898 216.625 186.703 215.281 186.703C213.266 186.703 212.258 187.406 212.258 188.812C212.258 190.453 213.059 191.273 214.66 191.273H218.621V189.609H220.297L221.492 191.273H223.625V193.734H221.727V195.258C221.727 199.109 219.586 201.035 215.305 201.035C211.203 201.035 209.152 199.406 209.152 196.148C209.152 194.375 209.867 193.152 211.297 192.48C209.867 191.816 209.152 190.613 209.152 188.871ZM214.684 193.734C213.066 193.734 212.258 194.52 212.258 196.09C212.258 197.723 213.277 198.539 215.316 198.539C217.52 198.539 218.621 197.438 218.621 195.234V193.734H214.684ZM235.824 184.242V196.172C235.824 199.391 233.617 201 229.203 201V198.305C231.547 198.305 232.719 197.594 232.719 196.172V184.242H235.824ZM239.34 201V184.242H242.445V191.156H250.707V184.242H253.812V201H250.707V193.852H242.445V201H239.34ZM257.047 200.297V197.484C258.727 198.109 260.625 198.422 262.742 198.422C265.312 198.422 266.598 197.562 266.598 195.844C266.598 194.594 265.809 193.969 264.23 193.969H261.605C258.176 193.969 256.461 192.406 256.461 189.281C256.461 185.844 258.902 184.125 263.785 184.125C265.66 184.125 267.438 184.398 269.117 184.945V187.758C267.438 187.133 265.66 186.82 263.785 186.82C260.973 186.82 259.566 187.641 259.566 189.281C259.566 190.531 260.246 191.156 261.605 191.156H264.23C267.879 191.156 269.703 192.719 269.703 195.844C269.703 199.359 267.383 201.117 262.742 201.117C260.625 201.117 258.727 200.844 257.047 200.297Z" fill="#5BACEC"/>
<path d="M2.17578 201H1.67578V201.5H2.17578V201ZM2.17578 184.242V183.742H1.67578V184.242H2.17578ZM5.28125 184.242L5.68614 183.949L5.53642 183.742H5.28125V184.242ZM14.1289 196.453L13.724 196.746L14.6289 197.995V196.453H14.1289ZM14.1289 184.242V183.742H13.6289V184.242H14.1289ZM17.1172 184.242H17.6172V183.742H17.1172V184.242ZM17.1172 201V201.5H17.6172V201H17.1172ZM14.0117 201L13.6039 201.289L13.7534 201.5H14.0117V201ZM5.16406 188.531L5.57183 188.242L4.66406 186.963V188.531H5.16406ZM5.16406 201V201.5H5.66406V201H5.16406ZM2.67578 201V184.242H1.67578V201H2.67578ZM2.17578 184.742H5.28125V183.742H2.17578V184.742ZM4.87636 184.536L13.724 196.746L14.5338 196.16L5.68614 183.949L4.87636 184.536ZM14.6289 196.453V184.242H13.6289V196.453H14.6289ZM14.1289 184.742H17.1172V183.742H14.1289V184.742ZM16.6172 184.242V201H17.6172V184.242H16.6172ZM17.1172 200.5H14.0117V201.5H17.1172V200.5ZM14.4195 200.711L5.57183 188.242L4.75629 188.821L13.6039 201.289L14.4195 200.711ZM4.66406 188.531V201H5.66406V188.531H4.66406ZM5.16406 200.5H2.17578V201.5H5.16406V200.5ZM31.4258 188.695H31.9258V188.195H31.4258V188.695ZM31.4258 201V201.5H31.9258V201H31.4258ZM29 201L28.5137 201.116L28.6053 201.5H29V201ZM28.625 199.43L29.1113 199.314L28.9356 198.578L28.3275 199.028L28.625 199.43ZM20.3516 188.695V188.195H19.8516V188.695H20.3516ZM23.457 188.695H23.957V188.195H23.457V188.695ZM28.3203 197.285L28.625 197.682L28.8203 197.531V197.285H28.3203ZM28.3203 188.695V188.195H27.8203V188.695H28.3203ZM30.9258 188.695V201H31.9258V188.695H30.9258ZM31.4258 200.5H29V201.5H31.4258V200.5ZM29.4863 200.884L29.1113 199.314L28.1387 199.546L28.5137 201.116L29.4863 200.884ZM28.3275 199.028C26.9896 200.018 25.5921 200.5 24.125 200.5V201.5C25.8298 201.5 27.4322 200.935 28.9225 199.832L28.3275 199.028ZM24.125 200.5C22.9684 200.5 22.1846 200.162 21.6768 199.561C21.1554 198.944 20.8516 197.965 20.8516 196.535H19.8516C19.8516 198.082 20.1766 199.335 20.913 200.207C21.6631 201.094 22.766 201.5 24.125 201.5V200.5ZM20.8516 196.535V188.695H19.8516V196.535H20.8516ZM20.3516 189.195H23.457V188.195H20.3516V189.195ZM22.957 188.695V196.453H23.957V188.695H22.957ZM22.957 196.453C22.957 197.195 23.1175 197.844 23.5258 198.311C23.9454 198.792 24.5486 198.992 25.2383 198.992V197.992C24.7405 197.992 24.4531 197.853 24.2789 197.653C24.0934 197.441 23.957 197.071 23.957 196.453H22.957ZM25.2383 198.992C26.3863 198.992 27.5179 198.533 28.625 197.682L28.0156 196.889C27.0289 197.647 26.1059 197.992 25.2383 197.992V198.992ZM28.8203 197.285V188.695H27.8203V197.285H28.8203ZM28.3203 189.195H31.4258V188.195H28.3203V189.195ZM34.3672 201H33.8672V201.5H34.3672V201ZM34.3672 188.695V188.195H33.8672V188.695H34.3672ZM36.7695 188.695L37.255 188.576L37.1613 188.195H36.7695V188.695ZM37.1562 190.266L36.6708 190.385L36.8792 191.232L37.5046 190.624L37.1562 190.266ZM40.5781 188.695H41.0781V188.195H40.5781V188.695ZM40.5781 191.203V191.703H41.0781V191.203H40.5781ZM37.4727 192.645L37.1104 192.3L36.9727 192.445V192.645H37.4727ZM37.4727 201V201.5H37.9727V201H37.4727ZM34.8672 201V188.695H33.8672V201H34.8672ZM34.3672 189.195H36.7695V188.195H34.3672V189.195ZM36.284 188.815L36.6708 190.385L37.6417 190.146L37.255 188.576L36.284 188.815ZM37.5046 190.624C38.5138 189.644 39.5356 189.195 40.5781 189.195V188.195C39.2144 188.195 37.9549 188.793 36.8079 189.907L37.5046 190.624ZM40.0781 188.695V191.203H41.0781V188.695H40.0781ZM40.5781 190.703C39.2644 190.703 38.1036 191.256 37.1104 192.3L37.8349 192.989C38.6698 192.111 39.5794 191.703 40.5781 191.703V190.703ZM36.9727 192.645V201H37.9727V192.645H36.9727ZM37.4727 200.5H34.3672V201.5H37.4727V200.5ZM42.3359 200.414H41.8359V200.771L42.1738 200.887L42.3359 200.414ZM42.3359 197.836L42.5216 197.372L41.8359 197.097V197.836H42.3359ZM51.5938 189.281H52.0938V188.924L51.7559 188.808L51.5938 189.281ZM51.5938 191.859L51.4081 192.324L52.0938 192.598V191.859H51.5938ZM42.8359 200.414V197.836H41.8359V200.414H42.8359ZM42.1502 198.3C43.5877 198.875 45.2309 199.156 47.0703 199.156V198.156C45.3316 198.156 43.8186 197.89 42.5216 197.372L42.1502 198.3ZM47.0703 199.156C47.7759 199.156 48.3911 199.046 48.8437 198.754C49.3342 198.439 49.5742 197.95 49.5742 197.367H48.5742C48.5742 197.643 48.4802 197.799 48.3027 197.913C48.0874 198.052 47.7007 198.156 47.0703 198.156V199.156ZM49.5742 197.367C49.5742 196.868 49.4353 196.405 49.0744 196.075C48.7222 195.753 48.2422 195.637 47.7266 195.637V196.637C48.1094 196.637 48.3032 196.725 48.4002 196.814C48.4885 196.894 48.5742 197.046 48.5742 197.367H49.5742ZM47.7266 195.637H45.5V196.637H47.7266V195.637ZM45.5 195.637C44.3251 195.637 43.5362 195.348 43.0383 194.858C42.5418 194.369 42.25 193.597 42.25 192.445H41.25C41.25 193.755 41.5832 194.828 42.3367 195.57C43.0888 196.311 44.1749 196.637 45.5 196.637V195.637ZM42.25 192.445C42.25 191.29 42.6491 190.489 43.4067 189.953C44.1961 189.395 45.4421 189.078 47.2227 189.078V188.078C45.3548 188.078 43.8644 188.405 42.8296 189.137C41.763 189.89 41.25 191.023 41.25 192.445H42.25ZM47.2227 189.078C48.7182 189.078 50.1201 189.305 51.4316 189.754L51.7559 188.808C50.333 188.32 48.8208 188.078 47.2227 188.078V189.078ZM51.0938 189.281V191.859H52.0938V189.281H51.0938ZM51.7794 191.395C50.3482 190.823 48.8002 190.539 47.1406 190.539V191.539C48.6842 191.539 50.1049 191.802 51.4081 192.324L51.7794 191.395ZM47.1406 190.539C46.2744 190.539 45.5491 190.647 45.0232 190.916C44.7531 191.054 44.5219 191.242 44.3596 191.491C44.1957 191.743 44.1211 192.028 44.1211 192.328H45.1211C45.1211 192.198 45.1515 192.108 45.1975 192.037C45.2452 191.964 45.3289 191.883 45.4787 191.806C45.7927 191.646 46.3272 191.539 47.1406 191.539V190.539ZM44.1211 192.328C44.1211 192.84 44.2777 193.308 44.6657 193.634C45.037 193.946 45.5398 194.059 46.0859 194.059V193.059C45.6555 193.059 45.4259 192.966 45.3089 192.868C45.2086 192.784 45.1211 192.636 45.1211 192.328H44.1211ZM46.0859 194.059H48.0781V193.059H46.0859V194.059ZM48.0781 194.059C49.3805 194.059 50.2639 194.353 50.8198 194.853C51.3657 195.344 51.6797 196.111 51.6797 197.25H52.6797C52.6797 195.928 52.3101 194.849 51.4888 194.11C50.6775 193.38 49.5101 193.059 48.0781 193.059V194.059ZM51.6797 197.25C51.6797 198.415 51.2943 199.217 50.5756 199.748C49.8288 200.301 48.6483 200.617 46.9531 200.617V201.617C48.7423 201.617 50.1751 201.289 51.1704 200.552C52.194 199.795 52.6797 198.664 52.6797 197.25H51.6797ZM46.9531 200.617C45.2875 200.617 43.8045 200.389 42.4981 199.941L42.1738 200.887C43.6017 201.377 45.1969 201.617 46.9531 201.617V200.617ZM65.0469 195.938V196.438H65.4824L65.5422 196.006L65.0469 195.938ZM56.8789 195.938V195.438H56.3789V195.938H56.8789ZM64.4258 198.188H64.9258V197.584L64.3331 197.696L64.4258 198.188ZM64.4258 200.648L64.5313 201.137L64.9258 201.052V200.648H64.4258ZM56.8789 193.781L56.3805 193.742L56.3375 194.281H56.8789V193.781ZM62.1289 193.781V194.281H62.6289V193.781H62.1289ZM59.5508 189.195C61.3382 189.195 62.5876 189.651 63.3948 190.475C64.2038 191.301 64.6523 192.582 64.6523 194.414H65.6523C65.6523 192.433 65.1673 190.855 64.1091 189.775C63.0491 188.693 61.4977 188.195 59.5508 188.195V189.195ZM64.6523 194.414C64.6523 194.899 64.6188 195.384 64.5516 195.869L65.5422 196.006C65.6156 195.476 65.6523 194.945 65.6523 194.414H64.6523ZM65.0469 195.438H56.8789V196.438H65.0469V195.438ZM56.3789 195.938C56.3789 196.946 56.7602 197.762 57.5526 198.302C58.3105 198.818 59.3846 199.039 60.6992 199.039V198.039C59.4669 198.039 58.6309 197.826 58.1154 197.475C57.6343 197.148 57.3789 196.664 57.3789 195.938H56.3789ZM60.6992 199.039C61.9731 199.039 63.2463 198.919 64.5185 198.679L64.3331 197.696C63.1209 197.925 61.9098 198.039 60.6992 198.039V199.039ZM63.9258 198.188V200.648H64.9258V198.188H63.9258ZM64.3203 200.16C63.2797 200.384 61.997 200.5 60.4648 200.5V201.5C62.0421 201.5 63.4 201.381 64.5313 201.137L64.3203 200.16ZM60.4648 200.5C58.3041 200.5 56.7765 199.991 55.7888 199.063C54.8069 198.139 54.2734 196.719 54.2734 194.707H53.2734C53.2734 196.89 53.8552 198.617 55.1037 199.791C56.3465 200.96 58.1647 201.5 60.4648 201.5V200.5ZM54.2734 194.707C54.2734 192.775 54.7378 191.419 55.5783 190.545C56.4152 189.674 57.7072 189.195 59.5508 189.195V188.195C57.5428 188.195 55.9461 188.719 54.8573 189.852C53.7719 190.981 53.2734 192.631 53.2734 194.707H54.2734ZM56.8789 194.281H62.1289V193.281H56.8789V194.281ZM62.6289 193.781V193.688H61.6289V193.781H62.6289ZM62.6289 193.688C62.6289 192.758 62.3938 191.969 61.8363 191.416C61.2796 190.865 60.4861 190.633 59.5508 190.633V191.633C60.3342 191.633 60.8297 191.827 61.1324 192.127C61.4343 192.426 61.6289 192.914 61.6289 193.688H62.6289ZM59.5508 190.633C58.6408 190.633 57.8655 190.88 57.3004 191.44C56.7408 191.994 56.4564 192.788 56.3805 193.742L57.3773 193.821C57.442 193.009 57.6732 192.478 58.0043 192.15C58.3298 191.827 58.8201 191.633 59.5508 191.633V190.633ZM67.4844 201H66.9844V201.5H67.4844V201ZM67.4844 188.695V188.195H66.9844V188.695H67.4844ZM69.8867 188.695L70.3722 188.576L70.2785 188.195H69.8867V188.695ZM70.2734 190.266L69.7879 190.385L69.9964 191.232L70.6218 190.624L70.2734 190.266ZM73.6953 188.695H74.1953V188.195H73.6953V188.695ZM73.6953 191.203V191.703H74.1953V191.203H73.6953ZM70.5898 192.645L70.2276 192.3L70.0898 192.445V192.645H70.5898ZM70.5898 201V201.5H71.0898V201H70.5898ZM67.9844 201V188.695H66.9844V201H67.9844ZM67.4844 189.195H69.8867V188.195H67.4844V189.195ZM69.4012 188.815L69.7879 190.385L70.7589 190.146L70.3722 188.576L69.4012 188.815ZM70.6218 190.624C71.631 189.644 72.6527 189.195 73.6953 189.195V188.195C72.3316 188.195 71.0721 188.793 69.9251 189.907L70.6218 190.624ZM73.1953 188.695V191.203H74.1953V188.695H73.1953ZM73.6953 190.703C72.3816 190.703 71.2208 191.256 70.2276 192.3L70.9521 192.989C71.787 192.111 72.6966 191.703 73.6953 191.703V190.703ZM70.0898 192.645V201H71.0898V192.645H70.0898ZM70.5898 200.5H67.4844V201.5H70.5898V200.5ZM73.9883 188.695V188.195H73.2629L73.521 188.873L73.9883 188.695ZM77.2812 188.695L77.7531 188.53L77.6358 188.195H77.2812V188.695ZM80.3867 197.555L79.9149 197.72L80.3921 199.082L80.8597 197.717L80.3867 197.555ZM83.4219 188.695V188.195H83.0646L82.9489 188.533L83.4219 188.695ZM86.6562 188.695L87.12 188.882L87.397 188.195H86.6562V188.695ZM81.5469 201.363L82.0102 201.551L82.0106 201.55L81.5469 201.363ZM77.1992 206.133L76.791 206.422L77.0337 206.765L77.4136 206.585L77.1992 206.133ZM75.6992 204.012L75.4988 203.554L74.9368 203.8L75.291 204.3L75.6992 204.012ZM78.6992 201.07L79.1535 201.279L79.2412 201.089L79.1665 200.892L78.6992 201.07ZM73.9883 189.195H77.2812V188.195H73.9883V189.195ZM76.8094 188.861L79.9149 197.72L80.8586 197.389L77.7531 188.53L76.8094 188.861ZM80.8597 197.717L83.8949 188.857L82.9489 188.533L79.9137 197.393L80.8597 197.717ZM83.4219 189.195H86.6562V188.195H83.4219V189.195ZM86.1925 188.508L81.0832 201.176L82.0106 201.55L87.12 188.882L86.1925 188.508ZM81.0835 201.175C80.2196 203.306 78.853 204.795 76.9849 205.681L77.4136 206.585C79.5298 205.58 81.0617 203.89 82.0102 201.551L81.0835 201.175ZM77.6075 205.844L76.1075 203.723L75.291 204.3L76.791 206.422L77.6075 205.844ZM75.8996 204.47C77.3866 203.819 78.4771 202.75 79.1535 201.279L78.2449 200.861C77.6713 202.109 76.7619 203.001 75.4988 203.554L75.8996 204.47ZM79.1665 200.892L74.4556 188.517L73.521 188.873L78.2319 201.248L79.1665 200.892ZM91.8242 198.832L92.2969 198.995L92.5255 198.332H91.8242V198.832ZM90.0664 203.93V204.43H90.4229L90.5391 204.093L90.0664 203.93ZM86.9609 203.93L86.4883 203.767L86.2596 204.43H86.9609V203.93ZM88.7188 198.832V198.332H88.3623L88.2461 198.669L88.7188 198.832ZM91.3515 198.669L89.5937 203.767L90.5391 204.093L92.2969 198.995L91.3515 198.669ZM90.0664 203.43H86.9609V204.43H90.0664V203.43ZM87.4336 204.093L89.1914 198.995L88.2461 198.669L86.4883 203.767L87.4336 204.093ZM88.7188 199.332H91.8242V198.332H88.7188V199.332ZM99.1602 201H98.6602V201.5H99.1602V201ZM99.1602 184.242V183.742H98.6602V184.242H99.1602ZM104.773 195.164L104.28 195.244L104.359 195.734L104.849 195.658L104.773 195.164ZM104.328 192.398L104.239 191.906L103.756 191.994L103.834 192.478L104.328 192.398ZM102.266 186.973V186.473H101.766V186.973H102.266ZM102.266 201V201.5H102.766V201H102.266ZM99.6602 201V184.242H98.6602V201H99.6602ZM99.1602 184.742H106.66V183.742H99.1602V184.742ZM106.66 184.742C108.304 184.742 109.443 185.121 110.171 185.791C110.891 186.453 111.293 187.479 111.293 188.965H112.293C112.293 187.302 111.839 185.967 110.848 185.055C109.865 184.15 108.438 183.742 106.66 183.742V184.742ZM111.293 188.965C111.293 190.544 110.759 191.772 109.707 192.7C108.637 193.645 106.988 194.318 104.698 194.67L104.849 195.658C107.238 195.291 109.099 194.571 110.369 193.45C111.657 192.312 112.293 190.8 112.293 188.965H111.293ZM105.267 195.085L104.822 192.319L103.834 192.478L104.28 195.244L105.267 195.085ZM104.417 192.89C105.861 192.63 107.008 192.204 107.803 191.575C108.619 190.928 109.047 190.078 109.047 189.059H108.047C108.047 189.758 107.771 190.324 107.182 190.791C106.571 191.275 105.608 191.659 104.239 191.906L104.417 192.89ZM109.047 189.059C109.047 188.286 108.853 187.615 108.379 187.141C107.904 186.666 107.233 186.473 106.461 186.473V187.473C107.079 187.473 107.451 187.627 107.672 187.848C107.893 188.069 108.047 188.44 108.047 189.059H109.047ZM106.461 186.473H102.266V187.473H106.461V186.473ZM101.766 186.973V201H102.766V186.973H101.766ZM102.266 200.5H99.1602V201.5H102.266V200.5ZM113.562 201H113.062V201.5H113.562V201ZM113.562 188.695V188.195H113.062V188.695H113.562ZM115.965 188.695L116.45 188.576L116.357 188.195H115.965V188.695ZM116.352 190.266L115.866 190.385L116.075 191.232L116.7 190.624L116.352 190.266ZM119.773 188.695H120.273V188.195H119.773V188.695ZM119.773 191.203V191.703H120.273V191.203H119.773ZM116.668 192.645L116.306 192.3L116.168 192.445V192.645H116.668ZM116.668 201V201.5H117.168V201H116.668ZM114.062 201V188.695H113.062V201H114.062ZM113.562 189.195H115.965V188.195H113.562V189.195ZM115.479 188.815L115.866 190.385L116.837 190.146L116.45 188.576L115.479 188.815ZM116.7 190.624C117.709 189.644 118.731 189.195 119.773 189.195V188.195C118.41 188.195 117.15 188.793 116.003 189.907L116.7 190.624ZM119.273 188.695V191.203H120.273V188.695H119.273ZM119.773 190.703C118.46 190.703 117.299 191.256 116.306 192.3L117.03 192.989C117.865 192.111 118.775 191.703 119.773 191.703V190.703ZM116.168 192.645V201H117.168V192.645H116.168ZM116.668 200.5H113.562V201.5H116.668V200.5ZM132.219 195.938V196.438H132.654L132.714 196.006L132.219 195.938ZM124.051 195.938V195.438H123.551V195.938H124.051ZM131.598 198.188H132.098V197.584L131.505 197.696L131.598 198.188ZM131.598 200.648L131.703 201.137L132.098 201.052V200.648H131.598ZM124.051 193.781L123.552 193.742L123.509 194.281H124.051V193.781ZM129.301 193.781V194.281H129.801V193.781H129.301ZM126.723 189.195C128.51 189.195 129.759 189.651 130.567 190.475C131.376 191.301 131.824 192.582 131.824 194.414H132.824C132.824 192.433 132.339 190.855 131.281 189.775C130.221 188.693 128.67 188.195 126.723 188.195V189.195ZM131.824 194.414C131.824 194.899 131.791 195.384 131.723 195.869L132.714 196.006C132.787 195.476 132.824 194.945 132.824 194.414H131.824ZM132.219 195.438H124.051V196.438H132.219V195.438ZM123.551 195.938C123.551 196.946 123.932 197.762 124.724 198.302C125.482 198.818 126.557 199.039 127.871 199.039V198.039C126.639 198.039 125.803 197.826 125.287 197.475C124.806 197.148 124.551 196.664 124.551 195.938H123.551ZM127.871 199.039C129.145 199.039 130.418 198.919 131.69 198.679L131.505 197.696C130.293 197.925 129.082 198.039 127.871 198.039V199.039ZM131.098 198.188V200.648H132.098V198.188H131.098ZM131.492 200.16C130.452 200.384 129.169 200.5 127.637 200.5V201.5C129.214 201.5 130.572 201.381 131.703 201.137L131.492 200.16ZM127.637 200.5C125.476 200.5 123.948 199.991 122.961 199.063C121.979 198.139 121.445 196.719 121.445 194.707H120.445C120.445 196.89 121.027 198.617 122.276 199.791C123.518 200.96 125.337 201.5 127.637 201.5V200.5ZM121.445 194.707C121.445 192.775 121.91 191.419 122.75 190.545C123.587 189.674 124.879 189.195 126.723 189.195V188.195C124.715 188.195 123.118 188.719 122.029 189.852C120.944 190.981 120.445 192.631 120.445 194.707H121.445ZM124.051 194.281H129.301V193.281H124.051V194.281ZM129.801 193.781V193.688H128.801V193.781H129.801ZM129.801 193.688C129.801 192.758 129.566 191.969 129.008 191.416C128.452 190.865 127.658 190.633 126.723 190.633V191.633C127.506 191.633 128.002 191.827 128.304 192.127C128.606 192.426 128.801 192.914 128.801 193.688H129.801ZM126.723 190.633C125.813 190.633 125.037 190.88 124.472 191.44C123.913 191.994 123.628 192.788 123.552 193.742L124.549 193.821C124.614 193.009 124.845 192.478 125.176 192.15C125.502 191.827 125.992 191.633 126.723 191.633V190.633ZM137.762 197.789H137.262V198.086L137.522 198.228L137.762 197.789ZM137.762 191.367L137.67 190.876L137.262 190.952V191.367H137.762ZM134.656 189.199L134.555 188.709L134.156 188.792V189.199H134.656ZM137.762 200.414L137.972 199.96L137.262 199.632V200.414H137.762ZM137.762 205.453V205.953H138.262V205.453H137.762ZM134.656 205.453H134.156V205.953H134.656V205.453ZM137.522 198.228C138.37 198.69 139.284 198.922 140.258 198.922V197.922C139.45 197.922 138.7 197.731 138.001 197.35L137.522 198.228ZM140.258 198.922C141.316 198.922 142.176 198.541 142.748 197.736C143.299 196.963 143.535 195.864 143.535 194.52H142.535C142.535 195.776 142.309 196.629 141.933 197.156C141.58 197.653 141.051 197.922 140.258 197.922V198.922ZM143.535 194.52C143.535 193.346 143.264 192.373 142.634 191.693C141.998 191.005 141.076 190.703 139.965 190.703V191.703C140.901 191.703 141.514 191.954 141.901 192.372C142.294 192.797 142.535 193.482 142.535 194.52H143.535ZM139.965 190.703C139.064 190.703 138.297 190.759 137.67 190.876L137.853 191.859C138.398 191.757 139.1 191.703 139.965 191.703V190.703ZM137.262 191.367V197.789H138.262V191.367H137.262ZM134.757 189.689C136.354 189.36 138.046 189.195 139.836 189.195V188.195C137.985 188.195 136.224 188.366 134.555 188.709L134.757 189.689ZM139.836 189.195C141.857 189.195 143.28 189.667 144.197 190.523C145.108 191.372 145.605 192.68 145.605 194.543H146.605C146.605 192.507 146.058 190.891 144.879 189.792C143.707 188.698 141.995 188.195 139.836 188.195V189.195ZM145.605 194.543C145.605 196.63 145.133 198.102 144.276 199.05C143.427 199.989 142.124 200.5 140.27 200.5V201.5C142.306 201.5 143.921 200.934 145.017 199.721C146.105 198.517 146.605 196.761 146.605 194.543H145.605ZM140.27 200.5C139.522 200.5 138.758 200.324 137.972 199.96L137.552 200.868C138.453 201.285 139.36 201.5 140.27 201.5V200.5ZM137.262 200.414V205.453H138.262V200.414H137.262ZM137.762 204.953H134.656V205.953H137.762V204.953ZM135.156 205.453V189.199H134.156V205.453H135.156ZM155.727 193.734L155.635 194.226L156.227 194.336V193.734H155.727ZM148.871 191.742H148.371V192.375L148.987 192.229L148.871 191.742ZM148.871 189.281L148.755 188.795L148.371 188.886V189.281H148.871ZM158.832 201V201.5H159.332V201H158.832ZM157.027 201L156.674 201.354L156.82 201.5H157.027V201ZM155.926 199.898L156.279 199.545L155.986 199.251L155.643 199.486L155.926 199.898ZM155.727 195.844H156.227V195.434L155.825 195.353L155.727 195.844ZM155.727 197.812L156.02 198.217L156.227 198.067V197.812H155.727ZM148.375 197.168C148.375 196.085 148.759 195.334 149.494 194.829C150.263 194.301 151.479 194 153.219 194V193C151.396 193 149.94 193.31 148.928 194.005C147.882 194.723 147.375 195.806 147.375 197.168H148.375ZM153.219 194C154.023 194 154.829 194.075 155.635 194.226L155.818 193.243C154.953 193.081 154.086 193 153.219 193V194ZM156.227 193.734V192.809H155.227V193.734H156.227ZM156.227 192.809C156.227 192.121 155.969 191.542 155.417 191.159C154.899 190.799 154.183 190.656 153.348 190.656V191.656C154.098 191.656 154.572 191.789 154.847 191.98C155.088 192.148 155.227 192.395 155.227 192.809H156.227ZM153.348 190.656C151.956 190.656 150.425 190.858 148.755 191.256L148.987 192.229C150.599 191.845 152.051 191.656 153.348 191.656V190.656ZM149.371 191.742V189.281H148.371V191.742H149.371ZM148.987 189.768C150.599 189.384 152.051 189.195 153.348 189.195V188.195C151.956 188.195 150.425 188.397 148.755 188.795L148.987 189.768ZM153.348 189.195C155.129 189.195 156.374 189.527 157.164 190.111C157.925 190.674 158.332 191.523 158.332 192.75H159.332C159.332 191.274 158.825 190.095 157.758 189.307C156.72 188.539 155.223 188.195 153.348 188.195V189.195ZM158.332 192.75V201H159.332V192.75H158.332ZM158.832 200.5H157.027V201.5H158.832V200.5ZM157.381 200.646L156.279 199.545L155.572 200.252L156.674 201.354L157.381 200.646ZM155.643 199.486C154.655 200.164 153.574 200.5 152.387 200.5V201.5C153.778 201.5 155.056 201.102 156.209 200.311L155.643 199.486ZM152.387 200.5C150.942 200.5 149.951 200.191 149.327 199.661C148.718 199.144 148.375 198.345 148.375 197.168H147.375C147.375 198.546 147.784 199.663 148.679 200.423C149.559 201.17 150.824 201.5 152.387 201.5V200.5ZM155.825 195.353C155.008 195.19 154.139 195.109 153.219 195.109V196.109C154.08 196.109 154.883 196.185 155.629 196.334L155.825 195.353ZM153.219 195.109C152.432 195.109 151.753 195.24 151.259 195.577C150.73 195.937 150.48 196.484 150.48 197.133H151.48C151.48 196.766 151.604 196.552 151.821 196.404C152.073 196.232 152.514 196.109 153.219 196.109V195.109ZM150.48 197.133C150.48 197.775 150.667 198.343 151.12 198.74C151.56 199.125 152.169 199.273 152.855 199.273V198.273C152.292 198.273 151.963 198.149 151.778 197.987C151.606 197.836 151.48 197.584 151.48 197.133H150.48ZM152.855 199.273C153.999 199.273 155.057 198.916 156.02 198.217L155.433 197.408C154.63 197.99 153.775 198.273 152.855 198.273V199.273ZM156.227 197.812V195.844H155.227V197.812H156.227ZM161.598 186.703V186.203H161.098V186.703H161.598ZM163.895 186.703L164.381 186.589L164.291 186.203H163.895V186.703ZM164.363 188.695L163.877 188.81L163.967 189.195H164.363V188.695ZM167.457 188.695H167.957V188.195H167.457V188.695ZM167.457 191.156V191.656H167.957V191.156H167.457ZM164.703 191.156V190.656H164.203V191.156H164.703ZM167.457 198.539H167.957V198.039H167.457V198.539ZM167.457 201V201.5H167.957V201H167.457ZM161.598 187.203H163.895V186.203H161.598V187.203ZM163.408 186.818L163.877 188.81L164.85 188.581L164.381 186.589L163.408 186.818ZM164.363 189.195H167.457V188.195H164.363V189.195ZM166.957 188.695V191.156H167.957V188.695H166.957ZM167.457 190.656H164.703V191.656H167.457V190.656ZM164.203 191.156V196.816H165.203V191.156H164.203ZM164.203 196.816C164.203 197.451 164.339 198.021 164.697 198.435C165.067 198.864 165.598 199.039 166.191 199.039V198.039C165.793 198.039 165.579 197.927 165.454 197.782C165.316 197.622 165.203 197.33 165.203 196.816H164.203ZM166.191 199.039H167.457V198.039H166.191V199.039ZM166.957 198.539V201H167.957V198.539H166.957ZM167.457 200.5H164.691V201.5H167.457V200.5ZM164.691 200.5C163.746 200.5 163.127 200.248 162.737 199.83C162.34 199.405 162.098 198.72 162.098 197.684H161.098C161.098 198.858 161.371 199.832 162.005 200.512C162.646 201.199 163.574 201.5 164.691 201.5V200.5ZM162.098 197.684V186.703H161.098V197.684H162.098ZM168.992 194.848H168.492V194.85L168.992 194.848ZM171.598 194.801C171.598 196.137 171.854 197.231 172.45 197.999C173.064 198.791 173.974 199.156 175.086 199.156V198.156C174.206 198.156 173.622 197.879 173.24 197.386C172.839 196.869 172.598 196.035 172.598 194.801H171.598ZM175.086 199.156C176.198 199.156 177.108 198.791 177.722 197.999C178.318 197.231 178.574 196.137 178.574 194.801H177.574C177.574 196.035 177.333 196.869 176.932 197.386C176.55 197.879 175.966 198.156 175.086 198.156V199.156ZM178.574 194.801C178.574 193.494 178.317 192.422 177.719 191.668C177.103 190.893 176.194 190.539 175.086 190.539V191.539C175.97 191.539 176.555 191.812 176.936 192.29C177.333 192.791 177.574 193.6 177.574 194.801H178.574ZM175.086 190.539C173.978 190.539 173.069 190.893 172.453 191.668C171.855 192.422 171.598 193.494 171.598 194.801H172.598C172.598 193.6 172.838 192.791 173.236 192.29C173.617 191.812 174.201 191.539 175.086 191.539V190.539ZM169.492 194.848C169.492 192.86 169.981 191.462 170.872 190.558C171.761 189.655 173.134 189.16 175.086 189.16V188.16C172.976 188.16 171.302 188.696 170.159 189.856C169.019 191.015 168.492 192.71 168.492 194.848H169.492ZM175.086 189.16C177.038 189.16 178.411 189.655 179.3 190.558C180.19 191.462 180.68 192.86 180.68 194.848H181.68C181.68 192.71 181.153 191.015 180.012 189.856C178.87 188.696 177.196 188.16 175.086 188.16V189.16ZM180.68 194.848C180.68 196.831 180.191 198.226 179.3 199.128C178.411 200.029 177.038 200.523 175.086 200.523V201.523C177.196 201.523 178.87 200.988 180.012 199.831C181.153 198.674 181.68 196.982 181.68 194.848H180.68ZM175.086 200.523C173.142 200.523 171.773 200.03 170.883 199.128C169.992 198.225 169.5 196.829 169.492 194.846L168.492 194.85C168.5 196.983 169.031 198.675 170.171 199.831C171.313 200.988 172.983 201.523 175.086 201.523V200.523ZM183.523 201H183.023V201.5H183.523V201ZM183.523 188.695V188.195H183.023V188.695H183.523ZM185.926 188.695L186.411 188.576L186.318 188.195H185.926V188.695ZM186.312 190.266L185.827 190.385L186.035 191.232L186.661 190.624L186.312 190.266ZM189.734 188.695H190.234V188.195H189.734V188.695ZM189.734 191.203V191.703H190.234V191.203H189.734ZM186.629 192.645L186.267 192.3L186.129 192.445V192.645H186.629ZM186.629 201V201.5H187.129V201H186.629ZM184.023 201V188.695H183.023V201H184.023ZM183.523 189.195H185.926V188.195H183.523V189.195ZM185.44 188.815L185.827 190.385L186.798 190.146L186.411 188.576L185.44 188.815ZM186.661 190.624C187.67 189.644 188.692 189.195 189.734 189.195V188.195C188.371 188.195 187.111 188.793 185.964 189.907L186.661 190.624ZM189.234 188.695V191.203H190.234V188.695H189.234ZM189.734 190.703C188.421 190.703 187.26 191.256 186.267 192.3L186.991 192.989C187.826 192.111 188.736 191.703 189.734 191.703V190.703ZM186.129 192.645V201H187.129V192.645H186.129ZM186.629 200.5H183.523V201.5H186.629V200.5ZM190.027 188.695V188.195H189.302L189.56 188.873L190.027 188.695ZM193.32 188.695L193.792 188.53L193.675 188.195H193.32V188.695ZM196.426 197.555L195.954 197.72L196.431 199.082L196.899 197.717L196.426 197.555ZM199.461 188.695V188.195H199.104L198.988 188.533L199.461 188.695ZM202.695 188.695L203.159 188.882L203.436 188.195H202.695V188.695ZM197.586 201.363L198.049 201.551L198.05 201.55L197.586 201.363ZM193.238 206.133L192.83 206.422L193.073 206.765L193.453 206.585L193.238 206.133ZM191.738 204.012L191.538 203.554L190.976 203.8L191.33 204.3L191.738 204.012ZM194.738 201.07L195.193 201.279L195.28 201.089L195.206 200.892L194.738 201.07ZM190.027 189.195H193.32V188.195H190.027V189.195ZM192.848 188.861L195.954 197.72L196.898 197.389L193.792 188.53L192.848 188.861ZM196.899 197.717L199.934 188.857L198.988 188.533L195.953 197.393L196.899 197.717ZM199.461 189.195H202.695V188.195H199.461V189.195ZM202.232 188.508L197.122 201.176L198.05 201.55L203.159 188.882L202.232 188.508ZM197.123 201.175C196.259 203.306 194.892 204.795 193.024 205.681L193.453 206.585C195.569 205.58 197.101 203.89 198.049 201.551L197.123 201.175ZM193.647 205.844L192.147 203.723L191.33 204.3L192.83 206.422L193.647 205.844ZM191.939 204.47C193.426 203.819 194.516 202.75 195.193 201.279L194.284 200.861C193.71 202.109 192.801 203.001 191.538 203.554L191.939 204.47ZM195.206 200.892L190.495 188.517L189.56 188.873L194.271 201.248L195.206 200.892ZM219.348 184.828H219.848V184.451L219.485 184.347L219.348 184.828ZM219.348 187.289L219.21 187.77L219.848 187.952V187.289H219.348ZM218.621 191.273V191.773H219.121V191.273H218.621ZM218.621 189.609V189.109H218.121V189.609H218.621ZM220.297 189.609L220.703 189.318L220.553 189.109H220.297V189.609ZM221.492 191.273L221.086 191.565L221.236 191.773H221.492V191.273ZM223.625 191.273H224.125V190.773H223.625V191.273ZM223.625 193.734V194.234H224.125V193.734H223.625ZM221.727 193.734V193.234H221.227V193.734H221.727ZM211.297 192.48L211.51 192.933L212.478 192.478L211.508 192.027L211.297 192.48ZM218.621 193.734H219.121V193.234H218.621V193.734ZM209.652 188.871C209.652 187.444 210.106 186.45 210.953 185.795C211.823 185.12 213.187 184.742 215.129 184.742V183.742C213.086 183.742 211.462 184.135 210.34 185.004C209.194 185.892 208.652 187.212 208.652 188.871H209.652ZM215.129 184.742C216.529 184.742 217.889 184.931 219.21 185.309L219.485 184.347C218.072 183.944 216.62 183.742 215.129 183.742V184.742ZM218.848 184.828V187.289H219.848V184.828H218.848ZM219.485 186.808C218.076 186.406 216.674 186.203 215.281 186.203V187.203C216.576 187.203 217.885 187.391 219.21 187.77L219.485 186.808ZM215.281 186.203C214.231 186.203 213.354 186.384 212.728 186.82C212.069 187.28 211.758 187.973 211.758 188.812H212.758C212.758 188.246 212.951 187.884 213.3 187.641C213.681 187.374 214.316 187.203 215.281 187.203V186.203ZM211.758 188.812C211.758 189.707 211.976 190.47 212.501 191.007C213.027 191.547 213.779 191.773 214.66 191.773V190.773C213.94 190.773 213.49 190.59 213.216 190.309C212.94 190.026 212.758 189.559 212.758 188.812H211.758ZM214.66 191.773H218.621V190.773H214.66V191.773ZM219.121 191.273V189.609H218.121V191.273H219.121ZM218.621 190.109H220.297V189.109H218.621V190.109ZM219.891 189.901L221.086 191.565L221.898 190.982L220.703 189.318L219.891 189.901ZM221.492 191.773H223.625V190.773H221.492V191.773ZM223.125 191.273V193.734H224.125V191.273H223.125ZM223.625 193.234H221.727V194.234H223.625V193.234ZM221.227 193.734V195.258H222.227V193.734H221.227ZM221.227 195.258C221.227 197.092 220.719 198.38 219.787 199.219C218.844 200.067 217.381 200.535 215.305 200.535V201.535C217.51 201.535 219.258 201.04 220.456 199.963C221.664 198.876 222.227 197.275 222.227 195.258H221.227ZM215.305 200.535C213.307 200.535 211.901 200.136 211.001 199.422C210.124 198.725 209.652 197.666 209.652 196.148H208.652C208.652 197.889 209.206 199.273 210.379 200.205C211.531 201.12 213.201 201.535 215.305 201.535V200.535ZM209.652 196.148C209.652 195.328 209.817 194.671 210.12 194.154C210.421 193.64 210.875 193.231 211.51 192.933L211.084 192.028C210.289 192.402 209.671 192.94 209.257 193.649C208.845 194.354 208.652 195.195 208.652 196.148H209.652ZM211.508 192.027C210.872 191.732 210.418 191.329 210.118 190.825C209.817 190.317 209.652 189.674 209.652 188.871H208.652C208.652 189.81 208.845 190.64 209.259 191.335C209.674 192.034 210.292 192.565 211.086 192.934L211.508 192.027ZM214.684 193.234C213.802 193.234 213.048 193.448 212.516 193.965C211.982 194.483 211.758 195.224 211.758 196.09H212.758C212.758 195.386 212.938 194.948 213.213 194.682C213.49 194.413 213.948 194.234 214.684 194.234V193.234ZM211.758 196.09C211.758 197.016 212.053 197.791 212.71 198.317C213.346 198.826 214.243 199.039 215.316 199.039V198.039C214.35 198.039 213.718 197.843 213.335 197.536C212.973 197.246 212.758 196.796 212.758 196.09H211.758ZM215.316 199.039C216.495 199.039 217.471 198.744 218.148 198.066C218.826 197.389 219.121 196.413 219.121 195.234H218.121C218.121 196.259 217.865 196.935 217.441 197.359C217.017 197.783 216.341 198.039 215.316 198.039V199.039ZM219.121 195.234V193.734H218.121V195.234H219.121ZM218.621 193.234H214.684V194.234H218.621V193.234ZM235.824 184.242H236.324V183.742H235.824V184.242ZM229.203 201H228.703V201.5H229.203V201ZM229.203 198.305V197.805H228.703V198.305H229.203ZM232.719 184.242V183.742H232.219V184.242H232.719ZM235.324 184.242V196.172H236.324V184.242H235.324ZM235.324 196.172C235.324 197.654 234.825 198.696 233.874 199.389C232.895 200.103 231.364 200.5 229.203 200.5V201.5C231.456 201.5 233.236 201.092 234.464 200.197C235.72 199.281 236.324 197.909 236.324 196.172H235.324ZM229.703 201V198.305H228.703V201H229.703ZM229.203 198.805C230.409 198.805 231.397 198.625 232.099 198.199C232.841 197.749 233.219 197.05 233.219 196.172H232.219C232.219 196.716 232.01 197.083 231.581 197.344C231.11 197.629 230.341 197.805 229.203 197.805V198.805ZM233.219 196.172V184.242H232.219V196.172H233.219ZM232.719 184.742H235.824V183.742H232.719V184.742ZM239.34 201H238.84V201.5H239.34V201ZM239.34 184.242V183.742H238.84V184.242H239.34ZM242.445 184.242H242.945V183.742H242.445V184.242ZM242.445 191.156H241.945V191.656H242.445V191.156ZM250.707 191.156V191.656H251.207V191.156H250.707ZM250.707 184.242V183.742H250.207V184.242H250.707ZM253.812 184.242H254.312V183.742H253.812V184.242ZM253.812 201V201.5H254.312V201H253.812ZM250.707 201H250.207V201.5H250.707V201ZM250.707 193.852H251.207V193.352H250.707V193.852ZM242.445 193.852V193.352H241.945V193.852H242.445ZM242.445 201V201.5H242.945V201H242.445ZM239.84 201V184.242H238.84V201H239.84ZM239.34 184.742H242.445V183.742H239.34V184.742ZM241.945 184.242V191.156H242.945V184.242H241.945ZM242.445 191.656H250.707V190.656H242.445V191.656ZM251.207 191.156V184.242H250.207V191.156H251.207ZM250.707 184.742H253.812V183.742H250.707V184.742ZM253.312 184.242V201H254.312V184.242H253.312ZM253.812 200.5H250.707V201.5H253.812V200.5ZM251.207 201V193.852H250.207V201H251.207ZM250.707 193.352H242.445V194.352H250.707V193.352ZM241.945 193.852V201H242.945V193.852H241.945ZM242.445 200.5H239.34V201.5H242.445V200.5ZM257.047 200.297H256.547V200.66L256.892 200.772L257.047 200.297ZM257.047 197.484L257.221 197.016L256.547 196.765V197.484H257.047ZM269.117 184.945H269.617V184.582L269.272 184.47L269.117 184.945ZM269.117 187.758L268.943 188.226L269.617 188.477V187.758H269.117ZM257.547 200.297V197.484H256.547V200.297H257.547ZM256.872 197.953C258.617 198.602 260.576 198.922 262.742 198.922V197.922C260.674 197.922 258.836 197.617 257.221 197.016L256.872 197.953ZM262.742 198.922C264.067 198.922 265.149 198.703 265.912 198.193C266.71 197.659 267.098 196.848 267.098 195.844H266.098C266.098 196.558 265.842 197.036 265.356 197.362C264.834 197.711 263.987 197.922 262.742 197.922V198.922ZM267.098 195.844C267.098 195.107 266.859 194.476 266.316 194.046C265.796 193.633 265.072 193.469 264.23 193.469V194.469C264.967 194.469 265.427 194.617 265.695 194.829C265.942 195.024 266.098 195.331 266.098 195.844H267.098ZM264.23 193.469H261.605V194.469H264.23V193.469ZM261.605 193.469C259.957 193.469 258.814 193.092 258.084 192.427C257.363 191.77 256.961 190.754 256.961 189.281H255.961C255.961 190.933 256.416 192.261 257.41 193.166C258.395 194.064 259.824 194.469 261.605 194.469V193.469ZM256.961 189.281C256.961 187.697 257.514 186.573 258.58 185.823C259.678 185.05 261.387 184.625 263.785 184.625V183.625C261.3 183.625 259.347 184.06 258.004 185.005C256.629 185.973 255.961 187.428 255.961 189.281H256.961ZM263.785 184.625C265.611 184.625 267.336 184.891 268.962 185.421L269.272 184.47C267.539 183.906 265.709 183.625 263.785 183.625V184.625ZM268.617 184.945V187.758H269.617V184.945H268.617ZM269.292 187.289C267.554 186.642 265.717 186.32 263.785 186.32V187.32C265.603 187.32 267.321 187.623 268.943 188.226L269.292 187.289ZM263.785 186.32C262.347 186.32 261.186 186.527 260.369 187.004C259.511 187.504 259.066 188.285 259.066 189.281H260.066C260.066 188.637 260.325 188.187 260.873 187.867C261.462 187.524 262.411 187.32 263.785 187.32V186.32ZM259.066 189.281C259.066 189.995 259.262 190.618 259.738 191.056C260.205 191.485 260.859 191.656 261.605 191.656V190.656C260.993 190.656 260.627 190.515 260.415 190.319C260.21 190.132 260.066 189.818 260.066 189.281H259.066ZM261.605 191.656H264.23V190.656H261.605V191.656ZM264.23 191.656C265.995 191.656 267.225 192.036 268.01 192.708C268.78 193.367 269.203 194.38 269.203 195.844H270.203C270.203 194.182 269.715 192.851 268.66 191.948C267.621 191.058 266.114 190.656 264.23 190.656V191.656ZM269.203 195.844C269.203 197.481 268.67 198.636 267.661 199.4C266.626 200.184 265.014 200.617 262.742 200.617V201.617C265.111 201.617 266.98 201.171 268.265 200.197C269.576 199.204 270.203 197.722 270.203 195.844H269.203ZM262.742 200.617C260.667 200.617 258.823 200.349 257.202 199.821L256.892 200.772C258.631 201.338 260.583 201.617 262.742 201.617V200.617Z" fill="#5BACEC"/>
<mask id="path-5-inside-1" fill="white">
<path fill-rule="evenodd" clip-rule="evenodd" d="M5.20911 68.8171C19.8168 47.9551 39.1545 30.8465 61.6412 18.8901C84.1279 6.93376 109.125 0.469054 134.589 0.0245828C160.053 -0.419889 185.26 5.1685 208.151 16.3328C231.041 27.4972 250.964 43.9204 266.291 64.2599L252.076 74.9719C238.439 56.8757 220.713 42.2639 200.348 32.3309C179.982 22.3979 157.555 17.4259 134.9 17.8213C112.244 18.2168 90.0041 23.9685 69.9976 34.6061C49.991 45.2438 32.7861 60.4654 19.7896 79.0264L5.20911 68.8171ZM194.002 45.3426C212.314 54.2741 228.252 67.4127 240.514 83.6843L237.86 85.6839C225.914 69.8311 210.386 57.0306 192.545 48.329C174.704 39.6273 155.057 35.2717 135.21 35.6181C115.363 35.9645 95.8803 41.0032 78.3539 50.3222C60.8275 59.6411 45.7554 72.9757 34.37 89.2358L31.6484 87.33C43.3345 70.6405 58.8047 56.9536 76.7941 47.3885C94.7834 37.8234 114.781 32.6516 135.152 32.2961C155.523 31.9405 175.689 36.4112 194.002 45.3426ZM43.3127 95.4975L48.9505 99.4452C58.7248 85.486 71.664 74.0384 86.7102 66.0382C101.756 58.0379 118.483 53.7123 135.521 53.4149C152.559 53.1175 169.426 56.8568 184.742 64.327C200.059 71.7973 213.389 82.7864 223.645 96.3959L229.141 92.2539C218.232 77.777 204.052 66.0875 187.759 58.1411C171.467 50.1947 153.525 46.2171 135.401 46.5335C117.276 46.8498 99.4844 51.4512 83.4791 59.9613C67.4739 68.4714 53.71 80.6487 43.3127 95.4975ZM63.531 109.655L54.9771 103.665C64.0854 90.657 76.1431 79.9893 90.1642 72.5341C104.185 65.079 119.772 61.048 135.649 60.7709C151.527 60.4937 167.244 63.9783 181.517 70.9396C195.79 77.9008 208.212 88.1412 217.769 100.823L209.43 107.108C200.865 95.7417 189.731 86.5639 176.939 80.3251C164.148 74.0862 150.061 70.9633 135.831 71.2116C121.602 71.46 107.633 75.0727 95.0666 81.7542C82.5005 88.4357 71.6941 97.9964 63.531 109.655ZM66.6415 111.833L78.3059 120C84.8364 110.673 93.4815 103.025 103.534 97.6797C113.587 92.3345 124.762 89.4444 136.146 89.2457C147.53 89.047 158.799 91.5453 169.033 96.5364C179.266 101.528 188.173 108.87 195.025 117.963L206.397 109.393C198.193 98.5055 187.528 89.7142 175.275 83.738C163.022 77.7618 149.528 74.7704 135.898 75.0083C122.267 75.2462 108.886 78.7067 96.8493 85.1069C84.8123 91.5071 74.4609 100.665 66.6415 111.833Z"/>
</mask>
<path fill-rule="evenodd" clip-rule="evenodd" d="M5.20911 68.8171C19.8168 47.9551 39.1545 30.8465 61.6412 18.8901C84.1279 6.93376 109.125 0.469054 134.589 0.0245828C160.053 -0.419889 185.26 5.1685 208.151 16.3328C231.041 27.4972 250.964 43.9204 266.291 64.2599L252.076 74.9719C238.439 56.8757 220.713 42.2639 200.348 32.3309C179.982 22.3979 157.555 17.4259 134.9 17.8213C112.244 18.2168 90.0041 23.9685 69.9976 34.6061C49.991 45.2438 32.7861 60.4654 19.7896 79.0264L5.20911 68.8171ZM194.002 45.3426C212.314 54.2741 228.252 67.4127 240.514 83.6843L237.86 85.6839C225.914 69.8311 210.386 57.0306 192.545 48.329C174.704 39.6273 155.057 35.2717 135.21 35.6181C115.363 35.9645 95.8803 41.0032 78.3539 50.3222C60.8275 59.6411 45.7554 72.9757 34.37 89.2358L31.6484 87.33C43.3345 70.6405 58.8047 56.9536 76.7941 47.3885C94.7834 37.8234 114.781 32.6516 135.152 32.2961C155.523 31.9405 175.689 36.4112 194.002 45.3426ZM43.3127 95.4975L48.9505 99.4452C58.7248 85.486 71.664 74.0384 86.7102 66.0382C101.756 58.0379 118.483 53.7123 135.521 53.4149C152.559 53.1175 169.426 56.8568 184.742 64.327C200.059 71.7973 213.389 82.7864 223.645 96.3959L229.141 92.2539C218.232 77.777 204.052 66.0875 187.759 58.1411C171.467 50.1947 153.525 46.2171 135.401 46.5335C117.276 46.8498 99.4844 51.4512 83.4791 59.9613C67.4739 68.4714 53.71 80.6487 43.3127 95.4975ZM63.531 109.655L54.9771 103.665C64.0854 90.657 76.1431 79.9893 90.1642 72.5341C104.185 65.079 119.772 61.048 135.649 60.7709C151.527 60.4937 167.244 63.9783 181.517 70.9396C195.79 77.9008 208.212 88.1412 217.769 100.823L209.43 107.108C200.865 95.7417 189.731 86.5639 176.939 80.3251C164.148 74.0862 150.061 70.9633 135.831 71.2116C121.602 71.46 107.633 75.0727 95.0666 81.7542C82.5005 88.4357 71.6941 97.9964 63.531 109.655ZM66.6415 111.833L78.3059 120C84.8364 110.673 93.4815 103.025 103.534 97.6797C113.587 92.3345 124.762 89.4444 136.146 89.2457C147.53 89.047 158.799 91.5453 169.033 96.5364C179.266 101.528 188.173 108.87 195.025 117.963L206.397 109.393C198.193 98.5055 187.528 89.7142 175.275 83.738C163.022 77.7618 149.528 74.7704 135.898 75.0083C122.267 75.2462 108.886 78.7067 96.8493 85.1069C84.8123 91.5071 74.4609 100.665 66.6415 111.833Z" fill="#5BACEC" fill-opacity="0.5"/>
<path d="M61.6412 18.8901L62.1107 19.7731L61.6412 18.8901ZM5.20911 68.8171L4.38995 68.2435L3.81638 69.0626L4.63553 69.6362L5.20911 68.8171ZM134.589 0.0245828L134.606 1.02443L134.589 0.0245828ZM208.151 16.3328L207.712 17.2316L208.151 16.3328ZM266.291 64.2599L266.893 65.0585L267.691 64.4567L267.089 63.6581L266.291 64.2599ZM252.076 74.9719L251.277 75.5737L251.879 76.3723L252.677 75.7705L252.076 74.9719ZM200.348 32.3309L200.786 31.4321L200.348 32.3309ZM134.9 17.8213L134.917 18.8212L134.9 17.8213ZM69.9976 34.6061L70.467 35.4891L69.9976 34.6061ZM19.7896 79.0264L19.216 79.8456L20.0352 80.4191L20.6087 79.6L19.7896 79.0264ZM240.514 83.6843L241.116 84.4829L241.914 83.8811L241.312 83.0825L240.514 83.6843ZM237.86 85.6839L237.062 86.2857L237.663 87.0843L238.462 86.4825L237.86 85.6839ZM135.21 35.6181L135.228 36.618L135.21 35.6181ZM78.3539 50.3222L78.8234 51.2051L78.3539 50.3222ZM34.37 89.2358L33.7965 90.0549L34.6156 90.6285L35.1892 89.8094L34.37 89.2358ZM31.6484 87.33L30.8292 86.7565L30.2556 87.5756L31.0748 88.1492L31.6484 87.33ZM76.7941 47.3885L77.2635 48.2714L76.7941 47.3885ZM135.152 32.2961L135.17 33.2959L135.152 32.2961ZM48.9505 99.4452L48.3769 100.264L49.1961 100.838L49.7697 100.019L48.9505 99.4452ZM43.3127 95.4975L42.4936 94.9239L41.92 95.7431L42.7392 96.3167L43.3127 95.4975ZM86.7102 66.0382L86.2408 65.1552L86.7102 66.0382ZM135.521 53.4149L135.503 52.415L135.521 53.4149ZM184.742 64.327L184.304 65.2258L184.742 64.327ZM223.645 96.3959L222.846 96.9977L223.448 97.7963L224.247 97.1945L223.645 96.3959ZM229.141 92.2539L229.743 93.0525L230.542 92.4507L229.94 91.6521L229.141 92.2539ZM135.401 46.5335L135.383 45.5336L135.401 46.5335ZM54.9771 103.665L54.158 103.091L53.5844 103.911L54.4035 104.484L54.9771 103.665ZM63.531 109.655L62.9574 110.474L63.7766 111.047L64.3502 110.228L63.531 109.655ZM90.1642 72.5341L89.6947 71.6512L90.1642 72.5341ZM135.649 60.7709L135.667 61.7707L135.649 60.7709ZM181.517 70.9396L181.079 71.8383L181.517 70.9396ZM217.769 100.823L218.371 101.622L219.17 101.02L218.568 100.222L217.769 100.823ZM209.43 107.108L208.631 107.71L209.233 108.508L210.031 107.906L209.43 107.108ZM176.939 80.3251L176.501 81.2239L176.939 80.3251ZM135.831 71.2116L135.814 70.2118L135.831 71.2116ZM95.0666 81.7542L94.5971 80.8712L95.0666 81.7542ZM78.3059 120L77.7323 120.819L78.5515 121.393L79.125 120.574L78.3059 120ZM66.6415 111.833L65.8223 111.259L65.2488 112.078L66.0679 112.652L66.6415 111.833ZM103.534 97.6797L103.065 96.7968L103.534 97.6797ZM136.146 89.2457L136.164 90.2456L136.146 89.2457ZM169.033 96.5364L169.471 95.6376L169.033 96.5364ZM195.025 117.963L194.226 118.564L194.828 119.363L195.627 118.761L195.025 117.963ZM206.397 109.393L206.999 110.192L207.797 109.59L207.196 108.791L206.397 109.393ZM175.275 83.738L174.837 84.6368L175.275 83.738ZM135.898 75.0083L135.915 76.0082L135.898 75.0083ZM96.8493 85.1069L96.3798 84.224L96.8493 85.1069ZM61.1717 18.0072C38.5457 30.0377 19.0882 47.2523 4.38995 68.2435L6.02826 69.3906C20.5454 48.658 39.7633 31.6554 62.1107 19.7731L61.1717 18.0072ZM134.572 -0.975265C108.95 -0.528039 83.7978 5.97673 61.1717 18.0072L62.1107 19.7731C84.458 7.8908 109.3 1.46615 134.606 1.02443L134.572 -0.975265ZM208.589 15.434C185.557 4.20052 160.193 -1.42249 134.572 -0.975265L134.606 1.02443C159.912 0.582713 184.964 6.13647 207.712 17.2316L208.589 15.434ZM267.089 63.6581C251.668 43.1926 231.621 26.6675 208.589 15.434L207.712 17.2316C230.461 28.3268 250.26 44.6483 265.492 64.8617L267.089 63.6581ZM252.677 75.7705L266.893 65.0585L265.689 63.4613L251.474 74.1732L252.677 75.7705ZM199.91 33.2297C220.133 43.0935 237.735 57.6036 251.277 75.5737L252.874 74.37C239.143 56.1479 221.294 41.4342 200.786 31.4321L199.91 33.2297ZM134.917 18.8212C157.415 18.4285 179.686 23.3659 199.91 33.2297L200.786 31.4321C180.279 21.4299 157.695 16.4233 134.882 16.8215L134.917 18.8212ZM70.467 35.4891C90.3342 24.9255 112.419 19.2139 134.917 18.8212L134.882 16.8215C112.069 17.2197 89.674 23.0114 69.5281 33.7232L70.467 35.4891ZM20.6087 79.6C33.5148 61.1683 50.5998 46.0527 70.467 35.4891L69.5281 33.7232C49.3822 44.4349 32.0575 59.7626 18.9704 78.4528L20.6087 79.6ZM4.63553 69.6362L19.216 79.8456L20.3632 78.2073L5.78268 67.9979L4.63553 69.6362ZM241.312 83.0825C228.956 66.6849 212.894 53.4445 194.44 44.4439L193.563 46.2414C211.734 55.1037 227.549 68.1406 239.715 84.2861L241.312 83.0825ZM238.462 86.4825L241.116 84.4829L239.912 82.8857L237.258 84.8852L238.462 86.4825ZM192.107 49.2277C209.806 57.8602 225.211 70.5589 237.062 86.2857L238.659 85.0821C226.618 69.1032 210.966 56.201 192.983 47.4302L192.107 49.2277ZM135.228 36.618C154.917 36.2743 174.408 40.5953 192.107 49.2277L192.983 47.4302C175.001 38.6594 155.197 34.2691 135.193 34.6183L135.228 36.618ZM78.8234 51.2051C96.2104 41.9602 115.539 36.9616 135.228 36.618L135.193 34.6183C115.188 34.9674 95.5501 40.0462 77.8844 49.4392L78.8234 51.2051ZM35.1892 89.8094C46.4841 73.6786 61.4363 60.45 78.8234 51.2051L77.8844 49.4392C60.2187 58.8322 45.0268 72.2729 33.5509 88.6622L35.1892 89.8094ZM31.0748 88.1492L33.7965 90.0549L34.9436 88.4166L32.222 86.5109L31.0748 88.1492ZM76.3246 46.5056C58.1959 56.1447 42.6059 69.9376 30.8292 86.7565L32.4675 87.9036C44.0632 71.3433 59.4135 57.7625 77.2635 48.2714L76.3246 46.5056ZM135.135 31.2962C114.606 31.6545 94.4533 36.8664 76.3246 46.5056L77.2635 48.2714C95.1135 38.7804 114.956 33.6487 135.17 33.2959L135.135 31.2962ZM194.44 44.4439C175.986 35.4432 155.664 30.9379 135.135 31.2962L135.17 33.2959C155.383 32.9431 175.393 37.3792 193.563 46.2414L194.44 44.4439ZM49.5241 98.626L43.8863 94.6784L42.7392 96.3167L48.3769 100.264L49.5241 98.626ZM86.2408 65.1552C71.0552 73.2295 57.9962 84.7832 48.1314 98.8716L49.7697 100.019C59.4534 86.1889 72.2728 74.8473 87.1797 66.9211L86.2408 65.1552ZM135.503 52.415C118.307 52.7152 101.426 57.0809 86.2408 65.1552L87.1797 66.9211C102.087 58.995 118.658 54.7094 135.538 54.4147L135.503 52.415ZM185.181 63.4282C169.723 55.8888 152.7 52.1149 135.503 52.415L135.538 54.4147C152.419 54.1201 169.129 57.8247 184.304 65.2258L185.181 63.4282ZM224.444 95.794C214.093 82.0585 200.639 70.9677 185.181 63.4282L184.304 65.2258C199.478 72.6269 212.686 83.5142 222.846 96.9977L224.444 95.794ZM228.54 91.4552L223.043 95.5972L224.247 97.1945L229.743 93.0525L228.54 91.4552ZM187.321 59.0399C203.472 66.9171 217.529 78.5048 228.343 92.8557L229.94 91.6521C218.936 77.0491 204.632 65.2579 188.198 57.2423L187.321 59.0399ZM135.418 47.5333C153.385 47.2197 171.17 51.1627 187.321 59.0399L188.198 57.2423C171.763 49.2267 153.665 45.2145 135.383 45.5336L135.418 47.5333ZM83.9486 60.8442C99.8145 52.4082 117.452 47.8469 135.418 47.5333L135.383 45.5336C117.101 45.8527 99.1542 50.4941 83.0097 59.0784L83.9486 60.8442ZM44.1319 96.0711C54.4386 81.3516 68.0827 69.2803 83.9486 60.8442L83.0097 59.0784C66.8651 67.6626 52.9814 79.9459 42.4936 94.9239L44.1319 96.0711ZM54.4035 104.484L62.9574 110.474L64.1046 108.835L55.5507 102.846L54.4035 104.484ZM89.6947 71.6512C75.5343 79.1804 63.3568 89.9541 54.158 103.091L55.7963 104.239C64.8141 91.3598 76.7519 80.7981 90.6337 73.4171L89.6947 71.6512ZM135.632 59.771C119.597 60.0509 103.855 64.1219 89.6947 71.6512L90.6337 73.4171C104.515 66.036 119.947 62.0451 135.667 61.7707L135.632 59.771ZM181.956 70.0408C167.541 63.0103 151.667 59.4911 135.632 59.771L135.667 61.7707C151.386 61.4963 166.948 64.9462 181.079 71.8383L181.956 70.0408ZM218.568 100.222C208.916 87.4134 196.37 77.0712 181.956 70.0408L181.079 71.8383C195.21 78.7305 207.509 88.8691 216.971 101.425L218.568 100.222ZM210.031 107.906L218.371 101.622L217.167 100.025L208.828 106.309L210.031 107.906ZM176.501 81.2239C189.151 87.3936 200.161 96.4695 208.631 107.71L210.228 106.506C201.568 95.0138 190.311 85.7343 177.378 79.4263L176.501 81.2239ZM135.849 72.2115C149.921 71.9659 163.851 75.0542 176.501 81.2239L177.378 79.4263C164.444 73.1182 150.202 69.9607 135.814 70.2118L135.849 72.2115ZM95.5361 82.6371C107.963 76.0297 121.777 72.4571 135.849 72.2115L135.814 70.2118C121.426 70.4629 107.303 74.1156 94.5971 80.8712L95.5361 82.6371ZM64.3502 110.228C72.4228 98.6992 83.1093 89.2445 95.5361 82.6371L94.5971 80.8712C81.8917 87.6268 70.9655 97.2935 62.7119 109.081L64.3502 110.228ZM78.8795 119.181L67.2151 111.013L66.0679 112.652L77.7323 120.819L78.8795 119.181ZM103.065 96.7968C92.8727 102.216 84.1077 109.971 77.4867 119.426L79.125 120.574C85.565 111.376 94.0903 103.834 104.004 98.5627L103.065 96.7968ZM136.129 88.2458C124.587 88.4473 113.257 91.3775 103.065 96.7968L104.004 98.5627C113.917 93.2915 124.938 90.4415 136.164 90.2456L136.129 88.2458ZM169.471 95.6376C159.096 90.5774 147.67 88.0444 136.129 88.2458L136.164 90.2456C147.39 90.0496 158.503 92.5133 168.594 97.4352L169.471 95.6376ZM195.823 117.361C188.876 108.142 179.846 100.698 169.471 95.6376L168.594 97.4352C178.686 102.357 187.469 109.598 194.226 118.564L195.823 117.361ZM205.795 108.594L194.423 117.164L195.627 118.761L206.999 110.192L205.795 108.594ZM174.837 84.6368C186.948 90.5438 197.489 99.2333 205.598 109.995L207.196 108.791C198.896 97.7776 188.108 88.8846 175.713 82.8392L174.837 84.6368ZM135.915 76.0082C149.388 75.773 162.725 78.7298 174.837 84.6368L175.713 82.8392C163.318 76.7938 149.669 73.7678 135.88 74.0085L135.915 76.0082ZM97.3188 85.9899C109.216 79.6638 122.442 76.2433 135.915 76.0082L135.88 74.0085C122.092 74.2491 108.556 77.7497 96.3798 84.224L97.3188 85.9899ZM67.4607 112.406C75.1896 101.368 85.4211 92.316 97.3188 85.9899L96.3798 84.224C84.2035 90.6982 73.7323 99.9624 65.8223 111.259L67.4607 112.406Z" fill="#5BACEC" mask="url(#path-5-inside-1)"/>
</svg>
